<svg xmlns="http://www.w3.org/2000/svg" viewBox="0 0 339.779 552.416" style="width: 339.779; height: 552.416">
  <defs>
    <style>
      .cls-1 {
        fill: #f4e9b0;
      }

      .cls-2 {
        fill: #a8575e;
      }
    </style>
  </defs>
  <g id="Group_3" data-name="Group 3" transform="translate(-515.181)">
    <rect id="Rectangle_2" data-name="Rectangle 2" class="cls-1" width="18.297" height="49.612" transform="matrix(1, -0.02, 0.02, 1, 533.575, 146.915)"/>
    <path id="Path_7" data-name="Path 7" class="cls-1" d="M262.168,156.431,257.946,55.8H187.574L183,156.431Z" transform="translate(467.531 140.537)"/>
    <path id="Path_8" data-name="Path 8" class="cls-2" d="M348.729,320.13H196.023L163.3,68.2h92.187l16.889,46.093L288.913,68.2h92.539Z" transform="translate(417.915 171.767)"/>
    <circle id="Ellipse_3" data-name="Ellipse 3" class="cls-1" cx="102.391" cy="102.391" r="102.391" transform="translate(587.9 0)"/>
    <path id="Path_9" data-name="Path 9" class="cls-2" d="M203.094,68.2h55.594L203.094,224.073,147.5,200.147Z" transform="translate(378.121 171.767)"/>
    <path id="Path_10" data-name="Path 10" class="cls-2" d="M264.994,68.2H209.4l55.594,155.873,55.945-23.926Z" transform="translate(534.021 171.767)"/>
    <path id="Path_11" data-name="Path 11" class="cls-2" d="M265.123,105.1l-10.2,26.037L213.4,269.066l35.186,18.648,62.279-180.5" transform="translate(544.095 264.702)"/>
    <path id="Path_12" data-name="Path 12" class="cls-2" d="M147.5,239.688V55.667L185.853,52.5l17.241,211.115" transform="translate(378.121 132.225)"/>
    <ellipse id="Ellipse_4" data-name="Ellipse 4" class="cls-1" cx="46.445" cy="27.093" rx="46.445" ry="27.093" transform="translate(515.181 164.338) rotate(-86.591)"/>
  </g>
</svg>
