<?xml version="1.0" encoding="utf-8"?>
<!-- Generator: Adobe Illustrator 23.0.1, SVG Export Plug-In . SVG Version: 6.00 Build 0)  -->
<svg version="1.2" baseProfile="tiny" id="Layer_1" xmlns="http://www.w3.org/2000/svg" xmlns:xlink="http://www.w3.org/1999/xlink"
	 x="0px" y="0px" viewBox="0 0 337.2 552.4" xml:space="preserve">
<title>Asset 1</title>
<g>
	<g id="Слой_1">
		<path id="Path_1" fill="#F4E9B0" d="M212.3,297l-4.6-100.6h-70.4L133.1,297H212.3z"/>
		<path id="Path_2" fill="#A8575E" d="M248.8,491.9H96.1L63.8,240h91.8l16.9,46.1l16.9-46.1h92.2L248.8,491.9z"/>
		<circle id="Ellipse_1" fill="#F4E9B0" cx="172.5" cy="102.4" r="102.4"/>
		<path id="Path_3" fill="#A8575E" d="M63.8,240h55.6L63.8,395.8l-56-23.9L63.8,240z"/>
		<path id="Path_4" fill="#A8575E" d="M281.6,240H226l55.6,155.9l55.6-23.9L281.6,240z"/>
		<path id="Path_5" fill="#A8575E" d="M291.4,369.8l-9.9,26l-41.5,138l34.8,18.7l62.3-180.5"/>

			<rect id="Rectangle_2" x="16.3" y="146.7" transform="matrix(0.9998 -2.006994e-02 2.006994e-02 0.9998 -3.4376 0.5451)" fill="#F4E9B0" width="18.3" height="49.6"/>
		<path id="Path_7" fill="#F4E9B0" d="M211.9,297l-4.2-100.6h-70.4L132.7,297H211.9z"/>
		<path id="Path_8" fill="#A8575E" d="M248.8,491.9H96.1L63.4,240h92.2l16.9,46.1L189,240h92.5L248.8,491.9z"/>
		<circle id="Ellipse_3" fill="#F4E9B0" cx="172.5" cy="102.4" r="102.4"/>
		<path id="Path_9" fill="#A8575E" d="M63.4,240H119L63.4,395.8L7.8,371.9L63.4,240z"/>
		<path id="Path_10" fill="#A8575E" d="M281.2,240h-55.6l55.6,155.9l56-23.9L281.2,240z"/>
		<path id="Path_11" fill="#A8575E" d="M291.4,369.8l-10.2,26l-41.5,138l35.2,18.7l62.3-180.5"/>
		<path id="Path_12" fill="#A8575E" d="M7.8,371.9v-184l38.3-3.2l17.2,211.1L7.8,371.9z"/>

			<ellipse id="Ellipse_4" fill="#F4E9B0" cx="27.2" cy="119.6" ry="46.4" rx="27.1"/>
	</g>
</g>
</svg>
