<svg xmlns="http://www.w3.org/2000/svg" width="76.84" height="91" viewBox="0 0 76.84 91">
  <defs>
    <style>
      .cls-1 {
        fill: none;
        stroke: #666;
        stroke-linecap: round;
        stroke-linejoin: round;
      }
    </style>
  </defs>
  <title>Индивидуальный подход</title>
  <g id="Слой_2" data-name="Слой 2">
    <g id="Layer_1" data-name="Layer 1">
      <g>
        <path class="cls-1" d="M46.45,9.1c0,4.43-3.59,10-8,10s-8-5.59-8-10S34,.5,38.42.5,46.45,4.67,46.45,9.1Z"/>
        <path class="cls-1" d="M38.18,53.66a1.94,1.94,0,0,0-1.74,1.74v31A4.29,4.29,0,0,1,32.3,90.5a3.87,3.87,0,0,1-3.67-3.67c0-2.28-.64-55.3-.64-58.16-10.83,0-23.37-7.91-26.37-10.12C-1.65,15.63,3,11.14,6.11,13.28c7.49,6.34,20.67,8.55,23.74,8.55h7.34l-2.14,21.1,3.37,3.56"/>
        <path class="cls-1" d="M38.67,53.66a2,2,0,0,1,1.74,1.74v31a4.29,4.29,0,0,0,4.13,4.13,3.87,3.87,0,0,0,3.67-3.67c0-2.28.64-55.3.64-58.16,10.83,0,23.38-7.91,26.37-10.12,3.28-2.92-1.35-7.41-4.49-5.27C63.25,19.62,50.06,21.83,47,21.83H39.66l2.14,21.1-3.38,3.56"/>
      </g>
    </g>
  </g>
</svg>
