<svg xmlns="http://www.w3.org/2000/svg" width="91.029" height="90.397" viewBox="0 0 91.029 90.397"><g transform="translate(-1155.901 -1149.879)"><path d="M1180.524,1237.786a5.178,5.178,0,0,0,4.084,1.99h1.884a2.737,2.737,0,0,1,2.7-2.3h26.2a2.735,2.735,0,0,1,2.7,2.3h1.884a5.186,5.186,0,0,0,5.186-5.185v-5.028" fill="none" stroke="#666" stroke-linecap="round" stroke-linejoin="round" stroke-width="1"/><line y2="23.148" transform="translate(1179.423 1199.029)" stroke-width="1" stroke="#666" stroke-linecap="round" stroke-linejoin="round" fill="none"/><path d="M1225.166,1189.03v-33.465a5.186,5.186,0,0,0-5.186-5.186h-35.372a5.185,5.185,0,0,0-5.185,5.186V1188.6" fill="none" stroke="#666" stroke-linecap="round" stroke-linejoin="round" stroke-width="1"/><rect width="18.694" height="7.415" rx="3.67" transform="translate(1182.974 1153.721)" stroke-width="1" stroke="#666" stroke-linecap="round" stroke-linejoin="round" fill="none"/><path d="M1178.917,1173.512h-.019a.944.944,0,0,1-.943-.944v-3.126a.943.943,0,0,1,.943-.943h.019c.521,0,.506.422.506.943v3.126C1179.423,1173.089,1179.438,1173.512,1178.917,1173.512Z" fill="none" stroke="#666" stroke-linecap="round" stroke-linejoin="round" stroke-width="1"/><path d="M1225.672,1176.044h-.019c-.521,0-.487-.422-.487-.943v-3.126c0-.521-.034-.944.487-.944h.019a.944.944,0,0,1,.944.944v3.126A.944.944,0,0,1,1225.672,1176.044Z" fill="none" stroke="#666" stroke-linecap="round" stroke-linejoin="round" stroke-width="1"/><path d="M1225.672,1182.885h-.019c-.521,0-.487-.423-.487-.944v-3.126c0-.521-.034-.943.487-.943h.019a.944.944,0,0,1,.944.943v3.126A.944.944,0,0,1,1225.672,1182.885Z" fill="none" stroke="#666" stroke-linecap="round" stroke-linejoin="round" stroke-width="1"/><path d="M1175.924,1211.578h-4.229v-11.229a2.111,2.111,0,0,0-1.166-1.886l-.017-.008a.885.885,0,0,1-.488-.791v-6.99a1.978,1.978,0,0,1,.578-1.4l.013-.012a2.26,2.26,0,0,1,1.6-.662h11.6a1.928,1.928,0,0,1,1.272.479l1.177,1.035h2.4v-1.3h3.736a3.523,3.523,0,0,1,3.523,3.522v3.033a3.524,3.524,0,0,1-3.523,3.523h-3.736v-1.619h-2.3l-1.328,1.217a1.927,1.927,0,0,1-1.3.506h-3.928a2.37,2.37,0,0,0-2.345,2.027Z" fill="none" stroke="#666" stroke-linecap="round" stroke-linejoin="round" stroke-width="1"/><path d="M1173.418,1211.265l1.837-12.187a2.37,2.37,0,0,1,2.343-2.016h2.256a2.232,2.232,0,0,0,2.232-2.232V1188.6" fill="none" stroke="#666" stroke-linecap="round" stroke-linejoin="round" stroke-width="1"/><line y2="7.154" transform="translate(1186.263 1190.117)" stroke-width="1" stroke="#666" stroke-linecap="round" stroke-linejoin="round" fill="none"/><line y2="7.154" transform="translate(1188.665 1190.117)" stroke-width="1" stroke="#666" stroke-linecap="round" stroke-linejoin="round" fill="none"/><line y2="28.197" transform="translate(1174.81 1211.578)" stroke-width="1" stroke="#666" stroke-linecap="round" stroke-linejoin="round" fill="none"/><line y2="28.197" transform="translate(1172.652 1211.578)" stroke-width="1" stroke="#666" stroke-linecap="round" stroke-linejoin="round" fill="none"/><path d="M1243.9,1170.391l-2.409-2.409a.407.407,0,0,0-.574,0l-2.47,2.471-.347-.348a.937.937,0,0,0-1.324,0l-3.738,3.738a2.551,2.551,0,0,0,0,3.607l.018.018-5.39,7.459-2.5,2.5" fill="none" stroke="#666" stroke-linecap="round" stroke-linejoin="round" stroke-width="1"/><path d="M1243.9,1170.391l2.408,2.409a.4.4,0,0,1,0,.573l-2.47,2.47.347.348a.934.934,0,0,1,0,1.323l-3.738,3.739a2.551,2.551,0,0,1-3.606,0l-.018-.019-7.459,5.391-2.4,2.4" fill="none" stroke="#666" stroke-linecap="round" stroke-linejoin="round" stroke-width="1"/><line x2="3.754" y2="3.754" transform="translate(1233.041 1177.45)" stroke-width="1" stroke="#666" stroke-linecap="round" stroke-linejoin="round" fill="none"/><line x2="3.148" y2="3.148" transform="translate(1231.537 1179.574)" stroke-width="1" stroke="#666" stroke-linecap="round" stroke-linejoin="round" fill="none"/><line x2="2.645" y2="2.645" transform="translate(1230.001 1181.61)" stroke-width="1" stroke="#666" stroke-linecap="round" stroke-linejoin="round" fill="none"/><line x2="2.045" y2="2.045" transform="translate(1228.59 1183.651)" stroke-width="1" stroke="#666" stroke-linecap="round" stroke-linejoin="round" fill="none"/><line x1="5.391" y1="5.391" transform="translate(1238.45 1170.453)" stroke-width="1" stroke="#666" stroke-linecap="round" stroke-linejoin="round" fill="none"/><line x2="1.135" y2="1.135" transform="translate(1240.999 1170.343)" stroke-width="1" stroke="#666" stroke-linecap="round" stroke-linejoin="round" fill="none"/><line x2="1.135" y2="1.135" transform="translate(1242.871 1172.215)" stroke-width="1" stroke="#666" stroke-linecap="round" stroke-linejoin="round" fill="none"/><line x2="4.135" transform="translate(1225.714 1229.568)" stroke-width="1" stroke="#666" stroke-linecap="round" stroke-linejoin="round" fill="none"/><line x2="3.321" transform="translate(1226.074 1232.083)" stroke-width="1" stroke="#666" stroke-linecap="round" stroke-linejoin="round" fill="none"/><line x2="2.48" transform="translate(1226.445 1234.666)" stroke-width="1" stroke="#666" stroke-linecap="round" stroke-linejoin="round" fill="none"/><path d="M1228.925,1239.584v-4.918l.94-5.124,3.42-3.42h6.015a2.627,2.627,0,0,0,2.627-2.627v-31.847a2.627,2.627,0,0,0-2.627-2.627h-13.962a2.627,2.627,0,0,0-2.627,2.627v.767h-8.832a1.194,1.194,0,0,0-1.193,1.194v17.664a1.194,1.194,0,0,0,1.193,1.194h8.937v14.657a2.444,2.444,0,0,0,2.444,2.444h.454l.731,5.1v4.849" fill="none" stroke="#666" stroke-linecap="round" stroke-linejoin="round" stroke-width="1"/><line y2="20.574" transform="translate(1222.711 1192.415)" stroke-width="1" stroke="#666" stroke-linecap="round" stroke-linejoin="round" fill="none"/><line x1="7.415" transform="translate(1215.296 1195.496)" stroke-width="1" stroke="#666" stroke-linecap="round" stroke-linejoin="round" fill="none"/><line x1="7.415" transform="translate(1215.296 1209.751)" stroke-width="1" stroke="#666" stroke-linecap="round" stroke-linejoin="round" fill="none"/><path d="M1203.664,1199.386h9.022v-2.767h-9.022a1.37,1.37,0,0,0-1.37,1.37v.027A1.37,1.37,0,0,0,1203.664,1199.386Z" fill="none" stroke="#666" stroke-linecap="round" stroke-linejoin="round" stroke-width="1"/><path d="M1203.664,1208.368h9.022V1205.6h-9.022a1.371,1.371,0,0,0-1.37,1.37V1207A1.371,1.371,0,0,0,1203.664,1208.368Z" fill="none" stroke="#666" stroke-linecap="round" stroke-linejoin="round" stroke-width="1"/><line y2="2.768" transform="translate(1206.211 1196.619)" stroke-width="1" stroke="#666" stroke-linecap="round" stroke-linejoin="round" fill="none"/><line y2="2.768" transform="translate(1206.211 1205.6)" stroke-width="1" stroke="#666" stroke-linecap="round" stroke-linejoin="round" fill="none"/><path d="M1174.813,1234.49l1.569,1.57a5.894,5.894,0,0,0,8.334,0l.042-.043" fill="none" stroke="#666" stroke-linecap="round" stroke-linejoin="round" stroke-width="1"/><path d="M1159.281,1210.54l-2.88,2.88,5.206,5.206-.665.665,1.44,1.44-.665.665,10.936,10.936" fill="none" stroke="#666" stroke-linecap="round" stroke-linejoin="round" stroke-width="1"/><path d="M1174.809,1217.564l10.034,10.034a5.892,5.892,0,0,1,0,8.334l-.042.042" fill="none" stroke="#666" stroke-linecap="round" stroke-linejoin="round" stroke-width="1"/><path d="M1159.324,1210.5l2.88-2.88,5.206,5.206.665-.665,1.44,1.44.665-.665,2.471,2.471" fill="none" stroke="#666" stroke-linecap="round" stroke-linejoin="round" stroke-width="1"/><line y1="5.803" x2="5.803" transform="translate(1161.607 1212.823)" stroke-width="1" stroke="#666" stroke-linecap="round" stroke-linejoin="round" fill="none"/><line y1="8.462" x2="8.462" transform="translate(1163.306 1214.522)" stroke-width="1" stroke="#666" stroke-linecap="round" stroke-linejoin="round" fill="none"/><line x2="7.759" y2="7.759" transform="translate(1174.81 1229.688)" stroke-width="1" stroke="#666" stroke-linecap="round" stroke-linejoin="round" fill="none"/><line x2="7.061" y2="7.061" transform="translate(1165.706 1220.583)" stroke-width="1" stroke="#666" stroke-linecap="round" stroke-linejoin="round" fill="none"/><line x2="11.376" y2="11.376" transform="translate(1174.811 1222.452)" stroke-width="1" stroke="#666" stroke-linecap="round" stroke-linejoin="round" fill="none"/><line x2="3.326" y2="3.326" transform="translate(1169.324 1216.965)" stroke-width="1" stroke="#666" stroke-linecap="round" stroke-linejoin="round" fill="none"/><line x1="7.132" y2="7.132" transform="translate(1162.383 1213.599)" stroke-width="1" stroke="#666" stroke-linecap="round" stroke-linejoin="round" fill="none"/><rect width="1.671" height="1.305" transform="translate(1159.797 1214.567) rotate(-45)" stroke-width="1" stroke="#666" stroke-linecap="round" stroke-linejoin="round" fill="none"/><rect width="1.671" height="1.305" transform="translate(1162.169 1212.194) rotate(-45)" stroke-width="1" stroke="#666" stroke-linecap="round" stroke-linejoin="round" fill="none"/></g></svg>