<svg xmlns="http://www.w3.org/2000/svg" width="97.55" height="90.41" viewBox="0 0 97.55 90.41">
  <defs>
    <style>
      .cls-1 {
        fill: none;
        stroke: #666;
        stroke-linecap: round;
        stroke-linejoin: round;
      }
    </style>
  </defs>
  <title>Оперативная доставка</title>
  <g id="Слой_2" data-name="Слой 2">
    <g id="Layer_1" data-name="Layer 1">
      <g>
        <polygon class="cls-1" points="97.06 39.78 67.97 51.65 67.97 89.91 97.06 78.05 97.06 39.78"/>
        <polygon class="cls-1" points="39.15 39.78 67.97 51.65 67.97 89.91 39.15 78.05 39.15 39.78"/>
        <polyline class="cls-1" points="39.15 39.78 67.97 51.65 97.06 39.78 67.08 26.52"/>
        <line class="cls-1" x1="79.69" y1="32.04" x2="50.99" y2="44.55"/>
        <line class="cls-1" x1="82.07" y1="33.21" x2="53.37" y2="45.72"/>
        <path class="cls-1" d="M58.45,58.77a2.18,2.18,0,0,1-.86-.18L47.43,54.16a2.15,2.15,0,0,1,1.71-3.94l10.17,4.44a2.14,2.14,0,0,1-.86,4.11Z"/>
        <circle class="cls-1" cx="47.22" cy="20.78" r="20.28"/>
        <circle class="cls-1" cx="47.22" cy="20.78" r="18.69"/>
        <line class="cls-1" x1="43.07" y1="50.37" x2="9.01" y2="50.37"/>
        <line class="cls-1" x1="58.18" y1="76.48" x2="24.13" y2="76.48"/>
        <line class="cls-1" x1="48.28" y1="57.93" x2="28.53" y2="57.93"/>
        <line class="cls-1" x1="24.13" y1="57.93" x2="18.58" y2="57.93"/>
        <line class="cls-1" x1="16" y1="57.93" x2="13.7" y2="57.93"/>
        <line class="cls-1" x1="10.54" y1="57.93" x2="9.59" y2="57.93"/>
        <line class="cls-1" x1="6.43" y1="57.93" x2="6.34" y2="57.93"/>
        <line class="cls-1" x1="51.54" y1="68.91" x2="31.78" y2="68.91"/>
        <line class="cls-1" x1="27.38" y1="68.91" x2="21.83" y2="68.91"/>
        <line class="cls-1" x1="19.25" y1="68.91" x2="16.95" y2="68.91"/>
        <line class="cls-1" x1="13.8" y1="68.91" x2="12.84" y2="68.91"/>
        <line class="cls-1" x1="9.68" y1="68.91" x2="9.59" y2="68.91"/>
        <line class="cls-1" x1="44.12" y1="66.25" x2="7.2" y2="66.25"/>
        <line class="cls-1" x1="3.08" y1="66.25" x2="2.8" y2="66.25"/>
        <line class="cls-1" x1="46.7" y1="73.04" x2="32.55" y2="73.04"/>
        <line class="cls-1" x1="26.42" y1="73.04" x2="17.15" y2="73.04"/>
        <line class="cls-1" x1="12.65" y1="73.62" x2="5.67" y2="73.62"/>
        <line class="cls-1" x1="0.98" y1="73.62" x2="0.5" y2="73.62"/>
        <line class="cls-1" x1="46.89" y1="21.2" x2="36.14" y2="15.17"/>
        <line class="cls-1" x1="46.89" y1="21.2" x2="60.43" y2="11.34"/>
      </g>
    </g>
  </g>
</svg>
