<svg xmlns="http://www.w3.org/2000/svg" width="141.732" height="27.485" viewBox="0 0 141.732 27.485"><path d="M284.584,481.353a5.24,5.24,0,1,0-5.24,5.24A5.24,5.24,0,0,0,284.584,481.353Zm-5.24,3.57a3.57,3.57,0,1,1,3.57-3.57A3.57,3.57,0,0,1,279.344,484.923Zm9.177-17.159H270.168a4.412,4.412,0,0,0-4.412,4.412V490.53a4.412,4.412,0,0,0,4.412,4.412h7.81a9.362,9.362,0,0,1,.733-4.031s-.173-.072-.346-.158c-1.511,3.167-3.166,3.1-3.166,3.1.791-.576,1.554-4.232-.233-5.351h0a8.376,8.376,0,1,1,11.873-3.4c-1.754,3.951-4.84,7.943-5.355,9.842h7.037a4.412,4.412,0,0,0,4.412-4.412V472.176A4.412,4.412,0,0,0,288.521,467.764Zm32.127,3.589h2.207v20.883h-2.207v2.149h9.6v-2.149h-2.207V471.353h2.207V469.2h-9.6Zm79.9-2.149v2.149h2.749V486.51l-11.785-17.236v-.07h-6.391v2.149h2.514v20.883h-2.116v2.149h6.944v-2.149h-2.275v-16.2L402.68,494.3v.084h3.167V471.353h1.641V469.2Zm-88.265,2.149h1.346l-5.009,9.638-5.089-9.638h2.207V469.2h-9.6v2.149h2.208l7.7,14.584L302,493.718l1.166,1a3.7,3.7,0,0,1,1.871-.569c2.836-.014,4.434,1.857,7.14.569s3.282-4.787,3.282-4.787-.6-.216-1.353-.432a2.8,2.8,0,0,1-2.555,1.289c-1.13,0-1.468-.475-2.836-.468a4.213,4.213,0,0,0-2.917,1.111h0l10.445-20.079h2.426V469.2H312.28Zm32.436,7.409c-5.6-1.919-6.736-3.3-6.736-4.606s1.017-3.014,3.761-3.014c2.521,0,5.056,1.715,6.764,2.977l.436.326H349l.137-.26,2.73-3.663-1.436-1.07-.9,1.207a12.174,12.174,0,0,0-6.655-1.916,7.956,7.956,0,0,0-8.368,7.639c0,2.553.94,4.549,7.216,6.794s6.775,3.551,6.871,5.2c0,1.65-1.4,3.474-4.414,3.55-4.05,0-8.541-5.086-8.541-5.086l-3.263,4.108s4.568,4.03,9.578,4.03c7.082,0,10.23-5.585,10.23-8.944S350.321,480.681,344.716,478.762Zm23.838-10.019c-5.45,0-12.96,3.167-12.96,12.97s7.51,13.536,13.536,13.536,13.09-5.451,13.09-13.09A13.412,13.412,0,0,0,368.554,468.743Zm3.263,23.78c-4.529,1.344-9.059-2.648-10.556-7.83s-1.42-11.977,4.645-13.589c4.107-1.075,8.982,1.612,10.518,8.56S376.347,491.18,371.817,492.523Z" transform="translate(-265.756 -467.764)" fill="#ee5b2e"/></svg>