<svg xmlns="http://www.w3.org/2000/svg" width="141.733" height="32.03" viewBox="0 0 141.733 32.03"><g transform="translate(-638.058 -85.968)"><path d="M668.578,89.464l-11.244,11.244L657.9,94Z" fill="#666"/><path d="M726.311,100.188l-.236,1.889h8.031l.188-1.511c.143-1.371-.047-2.268-1.227-2.315H728.2c-1.276.047-1.795.661-1.889,1.937ZM758.766,94h-6l-3.449,4.725h0l-3.543,4.867h0l-6.189,8.457h6l2.785-3.827,2.222,3.827h6.331l-5.009-8.694Zm-18.518,0h6.33l2.221,3.875-3.543,4.865Zm-77.481,7.654h6.615a1.577,1.577,0,0,0,1.748-1.464,1.313,1.313,0,0,0-1.371-1.7H663.05ZM665.317,94h4.631a5.668,5.668,0,0,1,6,6.142,7.343,7.343,0,0,1-3.023,6.047l2.5,5.86h-6.047l-2.411-5.622H662.2l-.567,5.622H656.2l.992-9.922Zm29.434,18.049H681.995c-3.637-.189-5.2-3.214-4.63-9.024s2.835-8.834,6.8-9.025h12.379l-.426,4.395H685.114c-1.7-.047-1.7.9-2.079,2.267h12.851l-.474,4.3H682.656c0,.8-.188,2.314.946,2.409h11.621Zm1.607,0L698.295,94h16.2c3.591-.094,5.292,1.795,5.055,5.718l-1.276,12.331H713.7l1.134-10.913c.142-1.371-.142-2.081-1.181-2.033h-2.41l-1.418,12.946h-4.535L706.657,99.1h-3.922l-1.369,12.946Zm23.715,0,1.23-12.284c.566-3.685,2.835-5.622,6.709-5.765h6.14c3.544.238,5.2,2.175,4.961,5.765l-1.229,12.284h-4.77l.519-5.528H725.6l-.521,5.528Z" fill="#666"/><path d="M759.193,107.274a2.15,2.15,0,0,1,2.126,2.126,2.126,2.126,0,1,1-4.252,0,2.148,2.148,0,0,1,2.126-2.126Zm0-.329a2.439,2.439,0,0,1,2.456,2.455,2.457,2.457,0,1,1-4.914,0,2.44,2.44,0,0,1,2.458-2.455Zm-.85,2.219h.9a1.316,1.316,0,0,0,.472-.047.47.47,0,0,0,.237-.188.351.351,0,0,0,.094-.284.531.531,0,0,0-.142-.377.9.9,0,0,0-.566-.144h-.992Zm-.473,1.843v-3.26h1.465a2.2,2.2,0,0,1,.661.094.735.735,0,0,1,.377.283,1.079,1.079,0,0,1,.142.521.778.778,0,0,1-.236.566,1.011,1.011,0,0,1-.709.331,1.559,1.559,0,0,1,.284.141c.095.142.236.285.33.427l.567.9h-.52l-.423-.661c-.143-.189-.238-.378-.332-.474s-.141-.189-.236-.189a.247.247,0,0,0-.19-.094c-.047-.047-.095-.047-.236-.047h-.471v1.465Z" fill="#666" fill-rule="evenodd"/><path d="M654.074,85.968h109.7a16.09,16.09,0,0,1,16.016,16.016h0A16.059,16.059,0,0,1,763.775,118h-109.7a16.059,16.059,0,0,1-16.016-16.014h0a16.09,16.09,0,0,1,16.016-16.016Zm0,1.7h109.7a14.365,14.365,0,0,1,14.314,14.316h0A14.334,14.334,0,0,1,763.775,116.3h-109.7a14.366,14.366,0,0,1-14.315-14.314h0a14.4,14.4,0,0,1,14.315-14.316Z" fill="#666" fill-rule="evenodd"/></g></svg>