<svg xmlns="http://www.w3.org/2000/svg" width="141.732" height="26.862" viewBox="0 0 141.732 26.862"><g transform="translate(-638.058 -278.314)"><path d="M644.53,278.479c6.3-.276,12.62-.044,18.933-.126a14.9,14.9,0,0,1,8.89,2.452,6.546,6.546,0,0,1,2.9,5.563c-.015,5.011.029,10.022-.019,15.034.038,2.128-2.177,3.265-4,3.6-2.491.358-5.722-.033-7-2.529-.315-2.816-.039-5.674-.126-8.5-1.533-2.578-4.914-1.828-7.42-1.94-2.448.141-5.7-.638-7.343,1.708-.048,2.09-.89,5.122,1.553,6.172,2.922.788,6.317-.663,8.949,1.19a1.876,1.876,0,0,1,.13,3.038c-1.751,1.4-4.121.832-6.182.943-3.376-.15-6.936.517-10.124-.919-2.549-.924-5.059-2.854-5.514-5.679-.087-2.423-.474-5.2,1.175-7.222,2.3-2.844,6.124-3.845,9.631-4.034,5.055-.024,10.114.029,15.174-.024a3.085,3.085,0,0,0-2.6-3.889c-5.34-.136-10.685.019-16.026-.068-1.373-.068-3.032-.667-3.448-2.118C641.914,279.625,643.341,278.88,644.53,278.479Z" fill="#666"/><path d="M683.087,278.537a8.135,8.135,0,0,1,4.813.421c1.422.817,2.061,2.423,2.917,3.743,3.434,5.582,6.849,11.174,10.3,16.751a3.626,3.626,0,0,1,.227,3.077,5.538,5.538,0,0,1-4.982,2.6c-1.751.077-3.942.044-4.982-1.63-3.991-6.39-7.875-12.852-11.808-19.276a3.293,3.293,0,0,1,.107-3.826A6.508,6.508,0,0,1,683.087,278.537Z" fill="#666"/><path d="M740.015,279.857c5.166-2.162,10.869-1.335,16.315-1.5,2.453.145,5.273-.542,7.358,1.132,1.349,1.33.077,3.313-1.529,3.6-5.408.963-11.357-.972-16.407,1.785-4.61,2.38-5.22,9.64-1.253,12.881a11.015,11.015,0,0,0,5.03,2.24c4.16.464,8.407-.276,12.538.4.556.3,1.122.57,1.708.822a2.413,2.413,0,0,1,.382,2.128,3.92,3.92,0,0,1-3.459,1.732c-4.992-.019-9.988.058-14.98-.044a19.3,19.3,0,0,1-10.874-4.435c-3.744-3.367-4.644-9.162-2.791-13.728C733.436,283.437,736.643,281.129,740.015,279.857Z" fill="#666"/><path d="M772.51,278.464a8.013,8.013,0,0,1,6,1.108,2.889,2.889,0,0,1,1.273,2.438c.019,6.452,0,12.9,0,19.353.078,1.969-1.915,3.168-3.6,3.555-2.424.436-5.408.232-7.058-1.838a3.077,3.077,0,0,1-.5-2.191c.025-6.279-.014-12.562.02-18.845C768.534,279.944,770.75,278.837,772.51,278.464Z" fill="#666"/><path d="M719.617,280.6c1.751-3.018,6.153-2.626,8.808-1.127a3.3,3.3,0,0,1,1.335,4.562c-3.574,5.92-7.231,11.793-10.806,17.713-.716,1.2-1.417,2.6-2.825,3.1-3.008.783-6.868.275-8.557-2.651-2.723-4.034-5.495-8.039-8.247-12.054a2.306,2.306,0,0,1,.8-3.41c1.732-.992,4.533-1.166,5.665.8,1.707,2.665,3.41,5.335,5.069,8.039Q715.232,288.077,719.617,280.6Z" fill="#666"/><path d="M745.979,290.629a5.564,5.564,0,0,1,3.555-1.518c3.9-.005,7.807-.049,11.711.029,1.161.4,2.6.706,3.042,2.026.252,2.192-2.37,2.845-4.048,3.038-3.42.053-6.845.039-10.265.005-1.339-.208-2.95-.4-3.831-1.558C745.665,292.066,745.969,291.3,745.979,290.629Z" fill="#666"/></g></svg>