<svg xmlns="http://www.w3.org/2000/svg" width="119.992" height="22.742" viewBox="0 0 119.992 22.742"><g transform="translate(-459.851 -1650.599)"><path d="M465.33,1650.738c5.336-.233,10.685-.037,16.029-.106a12.623,12.623,0,0,1,7.527,2.076,5.546,5.546,0,0,1,2.453,4.709c-.013,4.243.024,8.486-.017,12.728.033,1.8-1.843,2.764-3.382,3.047-2.109.3-4.845-.029-5.926-2.142-.266-2.383-.033-4.8-.107-7.2-1.3-2.183-4.16-1.548-6.281-1.642-2.073.119-4.825-.541-6.217,1.445-.041,1.769-.753,4.337,1.315,5.226,2.473.667,5.348-.561,7.576,1.007a1.588,1.588,0,0,1,.11,2.572c-1.482,1.187-3.489.7-5.233.8-2.859-.127-5.873.439-8.571-.778-2.159-.782-4.284-2.416-4.669-4.807-.074-2.052-.4-4.4.995-6.114,1.945-2.408,5.185-3.256,8.154-3.416,4.279-.02,8.562.025,12.846-.02a2.613,2.613,0,0,0-2.2-3.293c-4.521-.114-9.046.017-13.567-.057-1.163-.057-2.568-.565-2.92-1.794C463.115,1651.709,464.323,1651.078,465.33,1650.738Z"/><path d="M497.973,1650.787a6.891,6.891,0,0,1,4.074.357c1.2.692,1.745,2.051,2.47,3.169,2.907,4.726,5.8,9.46,8.718,14.182a3.067,3.067,0,0,1,.193,2.6,4.687,4.687,0,0,1-4.218,2.2c-1.483.066-3.338.037-4.218-1.38-3.379-5.409-6.667-10.88-10-16.319a2.787,2.787,0,0,1,.091-3.239A5.51,5.51,0,0,1,497.973,1650.787Z"/><path d="M546.168,1651.905c4.374-1.83,9.2-1.13,13.813-1.269,2.076.123,4.464-.459,6.229.958,1.142,1.126.065,2.805-1.294,3.051-4.579.815-9.616-.823-13.891,1.511-3.9,2.015-4.419,8.162-1.061,10.905a9.335,9.335,0,0,0,4.259,1.9c3.522.393,7.118-.234,10.615.335.471.254.95.484,1.446.7a2.042,2.042,0,0,1,.323,1.8,3.318,3.318,0,0,1-2.928,1.466c-4.226-.016-8.456.05-12.683-.036a16.343,16.343,0,0,1-9.2-3.756,10.583,10.583,0,0,1-2.363-11.622C540.6,1654.936,543.314,1652.982,546.168,1651.905Z"/><path d="M573.679,1650.726a6.786,6.786,0,0,1,5.078.938,2.444,2.444,0,0,1,1.077,2.064c.017,5.463,0,10.926,0,16.384.066,1.667-1.621,2.683-3.05,3.01-2.052.369-4.579.2-5.975-1.556a2.6,2.6,0,0,1-.426-1.855c.02-5.315-.012-10.635.016-15.955C570.313,1651.979,572.189,1651.041,573.679,1650.726Z"/><path d="M528.9,1652.532c1.483-2.555,5.209-2.224,7.457-.954a2.8,2.8,0,0,1,1.131,3.862c-3.027,5.012-6.123,9.983-9.149,15-.606,1.015-1.2,2.2-2.392,2.625-2.547.663-5.815.233-7.244-2.244-2.305-3.416-4.652-6.806-6.982-10.2a1.951,1.951,0,0,1,.676-2.887c1.466-.84,3.837-.987,4.795.679,1.446,2.257,2.887,4.517,4.292,6.806Q525.187,1658.865,528.9,1652.532Z"/><path d="M551.218,1661.025a4.713,4.713,0,0,1,3.009-1.286c3.3,0,6.61-.041,9.915.025.983.336,2.2.6,2.576,1.716.213,1.855-2.007,2.408-3.428,2.572-2.895.045-5.795.032-8.69,0-1.134-.176-2.5-.336-3.243-1.319C550.951,1662.242,551.209,1661.594,551.218,1661.025Z"/></g></svg>