<svg xmlns="http://www.w3.org/2000/svg" width="141.732" height="28.287" viewBox="0 0 141.732 28.287"><g transform="translate(-92 -182.72)"><path d="M115.319,204.5a10.792,10.792,0,1,0-3.162-7.632,10.758,10.758,0,0,0,3.162,7.632m7.632,6.511a14.145,14.145,0,1,1,10-4.143A14.1,14.1,0,0,1,122.951,211.007Z" fill="#00bbb4" fill-rule="evenodd"/><path d="M92,196.726a12.655,12.655,0,0,1,1.3-5.58,13.931,13.931,0,0,1,3.312-4.3,15.318,15.318,0,0,1,4.443-2.722,12.777,12.777,0,0,1,4.685-.95h3.791v4.079h-3.2a10.977,10.977,0,0,0-5.439,1.567,8.882,8.882,0,0,0-3.283,3.567,10.179,10.179,0,0,0-1.075,4.573,12.274,12.274,0,0,0,.786,4.114,8.23,8.23,0,0,0,2.937,3.777,9.92,9.92,0,0,0,5.977,1.619h3.3v4.079H105.6a13.6,13.6,0,0,1-7.019-1.828,12.869,12.869,0,0,1-4.844-5.006A14.365,14.365,0,0,1,92,196.726" fill="#00bbb4" fill-rule="evenodd"/><path d="M149.628,186.872v24.135h-4.385V186.872h-9.505V182.72h23.355v4.152Z" fill="#00bbb4" fill-rule="evenodd"/><path d="M161.6,194.451H175.41v4.036H161.481a8.666,8.666,0,0,0,1.357,3.8,9.569,9.569,0,0,0,3.791,3.361,11.709,11.709,0,0,0,4.944,1.248h3.837v4.108h-4.216a15.074,15.074,0,0,1-4.645-.778,13.944,13.944,0,0,1-4.567-2.545,13.019,13.019,0,0,1-3.506-4.713,16.45,16.45,0,0,1-1.33-6.852,13.675,13.675,0,0,1,1.464-5.838,13.158,13.158,0,0,1,4.9-5.343,15.842,15.842,0,0,1,8.669-2.207h3.23v4.036h-3.381a11.339,11.339,0,0,0-5.68,1.346,9.5,9.5,0,0,0-3.578,3.427,10.073,10.073,0,0,0-1.168,2.911" fill="#00bbb4" fill-rule="evenodd"/><path d="M192.531,195.61a6.09,6.09,0,0,0-2.166-1.583,8.02,8.02,0,0,0-3.32-.688,7.735,7.735,0,0,0-3.205.688,7.082,7.082,0,0,0-2.655,2.115,8.452,8.452,0,0,0-1.58,3.578c-.039.219-.055.455-.072.677-.02.261-.043.527-.083.787a8.9,8.9,0,0,0,.663,3.093,7.617,7.617,0,0,0,1.915,2.708,8.1,8.1,0,0,0,3.271,1.775c.562.067,1.143.132,1.7.231a8.169,8.169,0,0,0,3.942-1.032,7.44,7.44,0,0,0,2.762-2.712,8.6,8.6,0,0,0,1.168-3.837l.023-.342h2.242l-.015.382a10.068,10.068,0,0,1-1.514,5.123,9.271,9.271,0,0,1-3.623,3.3,10.239,10.239,0,0,1-4.706,1.13,10.074,10.074,0,0,1-5.081-1.319,9.886,9.886,0,0,1-3.658-3.592,10.165,10.165,0,0,1-1.417-5v-.018a10.288,10.288,0,0,1,1.381-4.919,9.981,9.981,0,0,1,3.554-3.635,9.357,9.357,0,0,1,4.909-1.352,10.465,10.465,0,0,1,5.183,1.323,8.807,8.807,0,0,1,3.494,3.335l.165.295-13.778,9.314L180.7,203.64Z" fill="#00bbb4" fill-rule="evenodd"/><path d="M205.11,208.912c.785-.074,1.592-.084,2.378-.084h.367v2.179h-3.369a5.6,5.6,0,0,1-3.883-1.52,5.7,5.7,0,0,1-1.52-4.242V186.779h2.25v5.048h6.522v2.133h-6.522v11.882a3.029,3.029,0,0,0,1.087,2.359,5.764,5.764,0,0,0,2.69.711" fill="#00bbb4" fill-rule="evenodd"/><path d="M208.826,196.728a13.07,13.07,0,0,1,1.348-5.763,14.381,14.381,0,0,1,3.42-4.438,15.827,15.827,0,0,1,4.59-2.813,13.181,13.181,0,0,1,4.838-.98h3.906v4.192h-3.3A11.371,11.371,0,0,0,218,188.546a9.2,9.2,0,0,0-3.4,3.693,10.537,10.537,0,0,0-1.113,4.732,12.716,12.716,0,0,0,.813,4.258,8.524,8.524,0,0,0,3.04,3.91,10.27,10.27,0,0,0,6.186,1.676h3.4v4.192h-4.059a14.055,14.055,0,0,1-7.249-1.887,13.285,13.285,0,0,1-5-5.172,14.832,14.832,0,0,1-1.791-7.22" fill="#00bbb4" fill-rule="evenodd"/><path d="M229.343,182.727h4.373l.015,3.825v24.455h-4.385V186.553Z" fill="#00bbb4" fill-rule="evenodd"/></g></svg>