<svg xmlns="http://www.w3.org/2000/svg" width="141.733" height="34.339" viewBox="0 0 141.733 34.339"><g transform="translate(-638.058 -179.694)"><path d="M683.613,187.048H695.93l-14.836,19.526-.02.028v2.408h17.577L696.3,206.68H684.438l14.377-19.526.02-.028v-2.408H681.258Z" fill="#666" fill-rule="evenodd"/><path d="M708.124,191.239c-5.336,0-7.93,2.84-7.93,8.679,0,6.119,2.909,9.092,8.894,9.092a20.35,20.35,0,0,0,5.439-.637l.08-.019v-2.32l-.136.038a19.32,19.32,0,0,1-5.048.608c-4.236,0-6.38-1.9-6.38-5.646v-.123h12.289l.012-.093a18.77,18.77,0,0,0,.128-2.1c0-5.032-2.407-7.478-7.348-7.478m-5.081,7.145c.2-3.219,1.913-4.85,5.081-4.85,2.992,0,4.546,1.633,4.614,4.854v.128h-9.7Z" fill="#666" fill-rule="evenodd"/><path d="M720.967,184.573l-2.411,2.387v17.318c0,3.184,1.4,4.732,4.28,4.732h2.817v-2.33h-2.016c-1.016,0-2.232-.458-2.232-2.644V193.568h4.248v-2.329h-4.686Z" fill="#666" fill-rule="evenodd"/><path d="M730.921,184.573l-2.415,2.387v17.318c0,3.184,1.4,4.732,4.28,4.732H735.6v-2.33h-2.016c-1.02,0-2.232-.458-2.232-2.644V193.568H735.6v-2.329h-4.682Z" fill="#666" fill-rule="evenodd"/><path d="M745.836,191.239c-5.527,0-8.213,2.907-8.213,8.886.02,5.966,2.706,8.867,8.213,8.867,5.523,0,8.209-2.9,8.209-8.867s-2.686-8.886-8.209-8.886m0,15.441c-3.562,0-5.367-2.228-5.367-6.624,0-4.306,1.8-6.488,5.367-6.488s5.364,2.182,5.364,6.488C751.2,204.452,749.4,206.68,745.836,206.68Z" fill="#666" fill-rule="evenodd"/><path d="M765.565,191.239a8.787,8.787,0,0,0-5.826,2.272l-.2.167-2.4-2.6V209.01H760V195.985l.04-.038a7.365,7.365,0,0,1,5.109-2.309c2.653,0,4,1.389,4,4.135V209.01h2.85V197.825c0-4.432-2.1-6.586-6.428-6.586" fill="#666" fill-rule="evenodd"/><path d="M772.877,185.368h1.183v3.105h.686v-3.105h1.184v-.658h-3.052Z" fill="#666" fill-rule="evenodd"/><path d="M779.062,184.709l-1.088,2.395-1.092-2.395h-.713v3.764h.681l-.016-2.346.873,1.919h.538l.885-1.949-.032,2.377h.693v-3.764Z" fill="#666" fill-rule="evenodd"/><path d="M655.229,179.694A17.17,17.17,0,1,0,672.4,196.866a17.191,17.191,0,0,0-17.171-17.172m0,32.165a14.994,14.994,0,1,1,14.995-14.993A15.011,15.011,0,0,1,655.229,211.859Zm8.814-23.006h-.008l-.4-.4a11.978,11.978,0,0,0-16.812-.012l-.6.583,3.192,5.233,1.514-1.548-2.024-3.324a9.884,9.884,0,0,1,12.449-.15L646.7,203.908l-.3.316-.315.317.749.751a11.92,11.92,0,0,0,8.4,3.445h.012a11.918,11.918,0,0,0,8.4-3.457l.59-.59-3.192-5.224-1.514,1.548,2.028,3.354a9.757,9.757,0,0,1-12.461.159l15.246-15.288.036-.037-.327-.328Z" fill="#666" fill-rule="evenodd"/></g></svg>