<svg xmlns="http://www.w3.org/2000/svg" width="120.021" height="23.269" viewBox="0 0 120.021 23.269"><g transform="translate(-193.195 -1650.335)"><path d="M193.195,1650.356h5.875V1669h16.19v4.6H193.195v-23.248Z" fill="#ff5100" fill-rule="evenodd"/><path d="M223.1,1654.759h11.957l2.354,1.842v10.8l-2.318,1.814H223.1Zm-5.687-4.408h20.394l5.291,4.126v15.042l-5.218,4.085H217.418Z" fill="#ff5100" fill-rule="evenodd"/><path d="M250.907,1673.59H245.3V1650.35h3.788l1.824,1.428,17.814,13.955V1650.35h5.611v23.239H270.4l-19.5-15.278Z" fill="#ff5100" fill-rule="evenodd"/><rect width="5.876" height="23.268" transform="translate(276.522 1650.336)" fill="#ff5100"/><path d="M305.134,1655.024l2.132,1.632v10.619l-2.1,1.64H292.639l-2.1-1.64v-10.619l2.132-1.632h12.458m2.938-4.689,5.144,4.027v15.272l-5.071,3.97H289.664l-5.07-3.97v-15.272l5.144-4.027Z" fill="#ff5100" fill-rule="evenodd"/></g></svg>