<svg xmlns="http://www.w3.org/2000/svg" width="120.011" height="23.952" viewBox="0 0 120.011 23.952"><g transform="translate(-193.183 -1527.964)"><path d="M212.929,1546.4a9.135,9.135,0,1,0-2.678-6.462,9.108,9.108,0,0,0,2.678,6.462m6.462,5.514a11.977,11.977,0,1,1,8.468-3.508A11.939,11.939,0,0,1,219.391,1551.916Z" fill="#00bbb4" fill-rule="evenodd"/><path d="M193.183,1539.823a10.725,10.725,0,0,1,1.1-4.725,11.793,11.793,0,0,1,2.8-3.639,12.958,12.958,0,0,1,3.762-2.3,10.814,10.814,0,0,1,3.967-.8h3.21v3.454h-2.712a9.291,9.291,0,0,0-4.6,1.326,7.524,7.524,0,0,0-2.78,3.021,8.618,8.618,0,0,0-.91,3.872,10.39,10.39,0,0,0,.665,3.484,6.972,6.972,0,0,0,2.487,3.2,8.4,8.4,0,0,0,5.061,1.371h2.794v3.454H204.7a11.523,11.523,0,0,1-5.943-1.548,10.891,10.891,0,0,1-4.1-4.24,12.164,12.164,0,0,1-1.468-5.919" fill="#00bbb4" fill-rule="evenodd"/><path d="M241.98,1531.48v20.436h-3.713V1531.48h-8.049v-3.516h19.776v3.516Z" fill="#00bbb4" fill-rule="evenodd"/><path d="M252.12,1537.9h11.69v3.417H252.017a7.339,7.339,0,0,0,1.148,3.221,8.12,8.12,0,0,0,3.211,2.846,9.913,9.913,0,0,0,4.186,1.056h3.248v3.479h-3.569a12.773,12.773,0,0,1-3.933-.659,11.79,11.79,0,0,1-3.867-2.156,11,11,0,0,1-2.969-3.99,13.925,13.925,0,0,1-1.126-5.8,11.589,11.589,0,0,1,1.239-4.943,11.138,11.138,0,0,1,4.151-4.524,13.406,13.406,0,0,1,7.34-1.869h2.734v3.418h-2.862a9.608,9.608,0,0,0-4.81,1.139,8.056,8.056,0,0,0-3.03,2.9,8.531,8.531,0,0,0-.988,2.465" fill="#00bbb4" fill-rule="evenodd"/><path d="M278.308,1538.878a5.155,5.155,0,0,0-1.835-1.341,6.792,6.792,0,0,0-2.81-.582,6.56,6.56,0,0,0-2.714.582,6.006,6.006,0,0,0-2.248,1.792,7.16,7.16,0,0,0-1.339,3.029c-.033.185-.046.386-.06.573-.017.222-.036.447-.071.667a7.542,7.542,0,0,0,.562,2.619,6.438,6.438,0,0,0,1.622,2.293,6.848,6.848,0,0,0,2.769,1.5c.476.057.968.111,1.44.2a6.912,6.912,0,0,0,3.337-.873,6.291,6.291,0,0,0,2.339-2.3,7.279,7.279,0,0,0,.989-3.25l.02-.29h1.9l-.013.324a8.513,8.513,0,0,1-1.282,4.338,7.842,7.842,0,0,1-3.068,2.8,8.665,8.665,0,0,1-3.984.957,8.531,8.531,0,0,1-4.3-1.117,8.371,8.371,0,0,1-3.1-3.042,8.606,8.606,0,0,1-1.2-4.237v-.016a8.693,8.693,0,0,1,1.169-4.165,8.443,8.443,0,0,1,3.009-3.078,7.922,7.922,0,0,1,4.156-1.145,8.857,8.857,0,0,1,4.389,1.121,7.449,7.449,0,0,1,2.959,2.823l.139.25-11.666,7.886-1.125-1.519Z" fill="#00bbb4" fill-rule="evenodd"/><path d="M288.959,1550.142c.664-.063,1.348-.072,2.014-.072h.311v1.846h-2.853a4.745,4.745,0,0,1-3.289-1.288,4.825,4.825,0,0,1-1.286-3.591V1531.4h1.9v4.274h5.523v1.806h-5.523v10.061a2.564,2.564,0,0,0,.921,2,4.874,4.874,0,0,0,2.277.6" fill="#00bbb4" fill-rule="evenodd"/><path d="M292.106,1539.825a11.071,11.071,0,0,1,1.141-4.88,12.162,12.162,0,0,1,2.9-3.758,13.408,13.408,0,0,1,3.886-2.382,11.171,11.171,0,0,1,4.1-.83h3.307v3.55H304.64a9.628,9.628,0,0,0-4.766,1.373,7.786,7.786,0,0,0-2.877,3.127,8.92,8.92,0,0,0-.942,4.007,10.765,10.765,0,0,0,.688,3.6,7.221,7.221,0,0,0,2.574,3.311,8.7,8.7,0,0,0,5.239,1.419h2.877v3.55H304a11.894,11.894,0,0,1-6.138-1.6,11.253,11.253,0,0,1-4.236-4.378,12.569,12.569,0,0,1-1.516-6.114" fill="#00bbb4" fill-rule="evenodd"/><path d="M309.478,1527.97h3.7l.013,3.239v20.707h-3.713v-20.707Z" fill="#00bbb4" fill-rule="evenodd"/></g></svg>