<svg xmlns="http://www.w3.org/2000/svg" width="119.971" height="29.066" viewBox="0 0 119.971 29.066"><g transform="translate(-459.849 -1525.407)"><path d="M498.409,1531.631h10.426l-12.558,16.528-.017.024v2.038h14.878l-1.99-1.972H499.108l12.17-16.528.017-.024v-2.038H496.416Z" fill-rule="evenodd"/><path d="M519.157,1535.179c-4.517,0-6.712,2.4-6.712,7.346,0,5.18,2.462,7.7,7.528,7.7a17.237,17.237,0,0,0,4.6-.539l.068-.016V1547.7l-.115.032a16.322,16.322,0,0,1-4.274.515c-3.585,0-5.4-1.608-5.4-4.779v-.1h10.4l.01-.079a15.892,15.892,0,0,0,.108-1.779c0-4.259-2.038-6.329-6.22-6.329m-4.3,6.048c.172-2.725,1.619-4.106,4.3-4.106,2.533,0,3.848,1.383,3.906,4.109v.108h-8.214Z" fill-rule="evenodd"/><path d="M530.028,1529.536l-2.041,2.02v14.659c0,2.7,1.184,4.006,3.623,4.006h2.385v-1.972h-1.707c-.86,0-1.889-.388-1.889-2.238v-8.86h3.6v-1.972h-3.967Z" fill-rule="evenodd"/><path d="M538.454,1529.536l-2.044,2.02v14.659c0,2.7,1.184,4.006,3.622,4.006h2.385v-1.972H540.71c-.863,0-1.889-.388-1.889-2.238v-8.86h3.6v-1.972h-3.963Z" fill-rule="evenodd"/><path d="M551.079,1535.179c-4.679,0-6.952,2.461-6.952,7.522.017,5.049,2.29,7.505,6.952,7.505s6.948-2.456,6.948-7.505-2.273-7.522-6.948-7.522m0,13.07c-3.016,0-4.544-1.886-4.544-5.607,0-3.645,1.528-5.491,4.544-5.491s4.54,1.846,4.54,5.491C555.619,1546.363,554.091,1548.249,551.079,1548.249Z" fill-rule="evenodd"/><path d="M567.779,1535.179a7.446,7.446,0,0,0-4.932,1.922l-.165.142-2.027-2.2v15.18h2.411V1539.2l.034-.032a6.234,6.234,0,0,1,4.324-1.955c2.247,0,3.383,1.176,3.383,3.5v9.511h2.412v-9.467c0-3.752-1.781-5.575-5.44-5.575" fill-rule="evenodd"/><path d="M573.968,1530.209h1v2.629h.58v-2.629h1v-.557h-2.584Z" fill-rule="evenodd"/><path d="M579.2,1529.651l-.921,2.027-.924-2.027h-.6v3.186h.577l-.013-1.986.739,1.624h.455l.749-1.65-.027,2.012h.587v-3.186Z" fill-rule="evenodd"/><path d="M474.384,1525.407a14.533,14.533,0,1,0,14.534,14.535,14.551,14.551,0,0,0-14.534-14.535m0,27.225a12.692,12.692,0,1,1,12.692-12.69A12.705,12.705,0,0,1,474.384,1552.632Zm7.461-19.473h-.007l-.341-.338a10.138,10.138,0,0,0-14.23-.01l-.506.493,2.7,4.43,1.282-1.31-1.713-2.813a8.366,8.366,0,0,1,10.537-.128L467.162,1545.9l-.253.268-.266.268.634.636a10.09,10.09,0,0,0,7.11,2.916h.01a10.088,10.088,0,0,0,7.114-2.926l.5-.5-2.7-4.421-1.281,1.31,1.716,2.839a8.254,8.254,0,0,1-10.547.134l12.9-12.94.03-.032-.276-.277Z" fill-rule="evenodd"/></g></svg>