<svg xmlns="http://www.w3.org/2000/svg" width="141.732" height="34.104" viewBox="0 0 141.732 34.104"><path d="M119.187,101.461c2.784-3.2,2.867-7.4,10.863-7.4,4.084,0,10.113.649,10.113,7.4v10.6c0,2.03.06,3.992,2.005,5.27h-6.284c-1.49,0-1.838-2.287-1.847-2.463-1.945,2.028-4.5,2.463-7.214,2.463-3.4,0-7.636-.907-7.636-6.395,0-4.328,3.446-6.079,7.724-6.973,3.232-.676,7.112-.694,7.112-2.5,0-1.754-1.384-3.194-4-3.194-1.555,0-3.093.477-3.745,1.661a2.3,2.3,0,0,1-2.339,1.533Zm14.85,4.26c-1.033,1.1-3.278,1.532-5.228,1.81-3.222.459-4.416,1.478-4.366,3.177.069,2.462,3.538,2.295,4.987,2.194,3.861-.264,4.607-3.172,4.607-4.51Zm83.175,4.251a1.769,1.769,0,0,1,1.689.976c.278.478,1.421,2.222,4.57,2.055,3.047-.161,3.63-1.795,3.385-2.879-.306-1.356-2.131-2.352-7.126-2.81-4.134-.38-7.653-2.367-7.653-5.812,0-3.528,1.953-7.417,10.256-7.417a11.038,11.038,0,0,1,6.528,1.9,11.991,11.991,0,0,1,3.806,4.709,1.634,1.634,0,0,0,1.065.769h-6.144c-.908,0-1.029-.532-1.232-1.069-.367-.959-1.759-2.079-4.005-2.125-3.088-.06-3.982,1.225-4.126,1.759-.746,2.712,3.445,2.805,7.33,3.554,2.357.451,3.973.913,5.361,2.122a5.274,5.274,0,0,1,2.065,4.357c0,2.45-1.292,7.26-9.765,7.26-7.593,0-9.677-4.4-10.417-5.75-.242-.436-.233-.44-.385-.695-.4-.666-1.337-.9-1.106-.9h5.9Zm-29.9,0H182.62c-.8,0-.934.218-1.106.485A4.156,4.156,0,0,1,177.7,113c-4.306,0-5.231-2.778-5.231-4.6,0-.557.027-1.094.925-1.094H186.4a.931.931,0,0,0,.908-.916c.319-6.7-2.7-12.289-10.492-12.289-7.862,0-10.483,6.514-10.483,11.589,0,4.074,1.5,7.2,3.746,9.006a11.725,11.725,0,0,0,7.686,2.63,9.134,9.134,0,0,0,7.292-3.083c1.561-1.988,1.839-3.279,3.325-4.279Zm-14.849-7.427a4.484,4.484,0,0,1,4.727-4.269,4.7,4.7,0,0,1,4.852,4.417c-.051.57-.273.833-.846.833H173.42A.9.9,0,0,1,172.462,102.542Zm-60.519-1.105a7.285,7.285,0,0,0,3.383-6.5,7.212,7.212,0,0,0-1.68-4.5c-1.718-2.056-3.57-2.793-7.172-2.849C96.19,87.421,92,84.931,92,84.931v34.1s4.793-1.56,13.5-1.56a24.152,24.152,0,0,0,4.1-.213,8.338,8.338,0,0,0,7.107-8.431A8.409,8.409,0,0,0,111.943,101.437ZM98.13,92.778h6.362a11.66,11.66,0,0,1,2.469.143,3.323,3.323,0,0,1,1.953,1.126,3.371,3.371,0,0,1,.662,2.162c0,1.4-1.1,3.157-4.32,3.157H98.13Zm10.149,18.978a5.743,5.743,0,0,1-3.027.529H98.13v-7.969h7.219a7.378,7.378,0,0,1,3,.5,3.652,3.652,0,0,1,1.958,3.45A3.711,3.711,0,0,1,108.279,111.756Zm87.968-2.166a3.414,3.414,0,0,0,6.828,0l.033-1.242V95.055a.946.946,0,0,1,.81-.949h7.912c-.188.093-.379.185-.564.279a3.823,3.823,0,0,0-2.028,3.383v9.715a11.807,11.807,0,0,1-.412,3.893,9.571,9.571,0,0,1-9.125,5.955c-4.343,0-8.455-2.662-9.4-6.668v0a21.263,21.263,0,0,1-.184-2.969V97.977a4.3,4.3,0,0,0-1.819-3.64,4.935,4.935,0,0,0-.566-.276h7.455a1.09,1.09,0,0,1,1.055,1.133c0,4.158.018,8.71.018,13.154ZM147.868,110a1.768,1.768,0,0,1,1.689.976c.279.478,1.423,2.219,4.571,2.056,3.042-.162,3.63-1.8,3.384-2.88-.3-1.361-2.13-2.352-7.13-2.81-4.134-.379-7.653-2.367-7.653-5.815,0-3.524,1.958-7.413,10.261-7.413a11,11,0,0,1,6.528,1.9,11.987,11.987,0,0,1,3.806,4.709,1.632,1.632,0,0,0,1.059.769h-6.144c-.9,0-1.023-.533-1.231-1.075-.365-.958-1.754-2.079-4-2.12-3.088-.065-3.988,1.227-4.13,1.759-.746,2.713,3.449,2.806,7.334,3.551,2.352.455,3.973.917,5.361,2.125a5.289,5.289,0,0,1,2.065,4.353c0,2.448-1.292,7.264-9.765,7.264-7.6,0-9.677-4.4-10.417-5.749-.241-.436-.236-.44-.385-.695-.4-.667-1.337-.9-1.106-.9h5.9Z" transform="translate(-92 -84.931)"/></svg>