<svg xmlns="http://www.w3.org/2000/svg" width="141.733" height="22.157" viewBox="0 0 141.733 22.157"><g transform="translate(-464.302 -470.428)"><path d="M469.893,470.435q2.194,0,4.387,0c.031,4.471.005,8.944.014,13.416-.015,1.28.051,2.562-.026,3.841a5.6,5.6,0,0,1-1.434,3.005,6.436,6.436,0,0,1-4.171,1.756c-1.447.011-2.895.044-4.344.017-.023-1.43.009-2.861-.017-4.291,1.048-.257,2.156.018,3.215-.183a2.8,2.8,0,0,0,1.882-.819,2.447,2.447,0,0,0,.476-1.5C469.892,480.6,469.855,475.514,469.893,470.435Z" fill="#666"/><path d="M485.063,470.521a15.3,15.3,0,0,1,2.423-.086,11.015,11.015,0,0,1,10.23,11.062,10.264,10.264,0,0,1-1.735,6.056,11.589,11.589,0,0,1-4.385,3.91,11.368,11.368,0,0,1-5.5,1.115,8.153,8.153,0,0,1-1.659-.209,10.658,10.658,0,0,1-5.728-3.163,10.476,10.476,0,0,1-3.055-6.484,11.355,11.355,0,0,1,.434-4.644A11.172,11.172,0,0,1,485.063,470.521Zm.209,4.452a6.374,6.374,0,0,0-3.255,1.805,6.243,6.243,0,0,0-1.963,3.907,7.755,7.755,0,0,0,.2,2.652,6.735,6.735,0,0,0,2.5,3.545,6.62,6.62,0,0,0,4.2,1.285,6.5,6.5,0,0,0,4.439-2.013,6.61,6.61,0,0,0,.973-8.124,6.785,6.785,0,0,0-3.873-2.946,6.457,6.457,0,0,0-2.079-.185A5.912,5.912,0,0,0,485.272,474.973Z" fill="#666"/><path d="M494.618,470.431c1.792.01,3.585,0,5.378.008,1.665,2.314,3.318,4.64,4.978,6.958a.164.164,0,0,0,.306-.015q1.9-2.649,3.786-5.3c.4-.547.768-1.124,1.208-1.643q9.254-.006,18.505,0a6.366,6.366,0,0,1,3.133,1.066,8.828,8.828,0,0,1,1.466,1.334,6.771,6.771,0,0,1-.47,8.946,6.239,6.239,0,0,1-3.917,1.9c-.939.021-1.879-.019-2.818.018.55.749,1.284,1.334,1.869,2.054,1.794,1.915,3.565,3.851,5.366,5.76.295.357.634.674.921,1.039-2.049.048-4.1.016-6.148.019-2.505-2.7-4.985-5.433-7.49-8.139a2.964,2.964,0,0,1-.342-.454c.725-1.551,1.362-3.14,2.089-4.689,1.971-.015,3.942,0,5.912-.005a2.231,2.231,0,0,0,2.076-1.855,2.45,2.45,0,0,0-.166-1.3,2.3,2.3,0,0,0-2.122-1.309c-3.115.012-6.232-.011-9.348.011-.024,5.789-.007,11.577-.009,17.365-.016.13.05.417-.175.378-1.405,0-2.809.012-4.213-.008-.029-6.658.02-13.317-.024-19.974a6.628,6.628,0,0,0-1.076,1.348q-2.735,3.775-5.461,7.557c-.19.3-.523.57-.5.957,0,3.371.009,6.742,0,10.113q-2.191.02-4.381,0c-.019-3.4.005-6.8-.011-10.206a4.8,4.8,0,0,0-.737-1.157q-3.755-5.215-7.521-10.422A.286.286,0,0,1,494.618,470.431Z" fill="#666"/><path d="M544.984,470.517a14.564,14.564,0,0,1,2.3-.084,10.675,10.675,0,0,1,6.532,2.707,11.074,11.074,0,0,1,3.173,4.576,11.672,11.672,0,0,1,.358,6.314,11.16,11.16,0,0,1-10.06,8.546c-.571,0-1.142.01-1.712,0a11.38,11.38,0,0,1-4.587-1.439,11.135,11.135,0,0,1-5.364-7.567,12.415,12.415,0,0,1-.163-2.927,10.888,10.888,0,0,1,1.336-4.509,12.108,12.108,0,0,1,2.916-3.392A10.57,10.57,0,0,1,544.984,470.517Zm.187,4.449a6.762,6.762,0,0,0-5.225,5.459c-.035.706-.033,1.414,0,2.12a6.713,6.713,0,0,0,5.612,5.539,6.664,6.664,0,0,0,7.551-7.676,6.7,6.7,0,0,0-5.4-5.474A13.738,13.738,0,0,0,545.171,474.966Z" fill="#666"/><path d="M568.493,470.505a6.749,6.749,0,0,1,1.356-.071,10.547,10.547,0,0,1,6.624,2.071,11.527,11.527,0,0,1,3.655,4.453,11.682,11.682,0,0,1,.9,3.475,13.9,13.9,0,0,1-.157,3.2,11.11,11.11,0,0,1-8.773,8.762,12.946,12.946,0,0,1-3.2.171,14.357,14.357,0,0,1-2.546-.562,10.314,10.314,0,0,1-3.669-2.154,14.484,14.484,0,0,1-1.75-1.9,11.133,11.133,0,0,1,.2-13.154A10.963,10.963,0,0,1,568.493,470.505Zm.427,4.475a6.674,6.674,0,0,0-.323,12.948,6.6,6.6,0,0,0,5.786-1.137,8.332,8.332,0,0,0,1.673-1.853,6.647,6.647,0,0,0-.787-7.9,6.1,6.1,0,0,0-4.672-2.14A9.117,9.117,0,0,0,568.92,474.98Z" fill="#666"/><path d="M582.205,470.565c.038-.031.113-.1.15-.128,1.467-.007,2.935,0,4.4,0,.507.676.879,1.44,1.339,2.147,1.957,3.245,3.927,6.484,5.881,9.731l.2,0c2.167-3.636,4.381-7.245,6.558-10.874a8.165,8.165,0,0,1,.657-1.01q2.1.008,4.193,0a.963.963,0,0,1,.442.122c0,7.334.01,14.667-.005,22-1.486.043-2.975.023-4.461.01-.011-4.474,0-8.948,0-13.422a2.355,2.355,0,0,0-.125-1.139c-1.912,3.052-3.837,6.1-5.739,9.153-.112.175-.27.374-.5.358q-1.122.006-2.244,0a.594.594,0,0,1-.5-.362c-1.725-2.763-3.47-5.514-5.194-8.278-.176-.255-.277-.59-.583-.721-.025,4.8,0,9.6-.013,14.4-1.482.053-2.964.01-4.446.022C582.18,485.239,582.21,477.9,582.205,470.565Z" fill="#666"/></g></svg>