<svg xmlns="http://www.w3.org/2000/svg" width="120.003" height="27.12" viewBox="0 0 120.003 27.12"><g transform="translate(-459.833 -1406.374)"><path d="M485.674,1409.334l-9.52,9.52.48-5.681Z" fill="#d82628"/><path d="M534.555,1418.414l-.2,1.6h6.8l.16-1.28c.121-1.161-.04-1.92-1.039-1.96h-4.121c-1.08.04-1.52.559-1.6,1.64Zm27.48-5.241h-5.079l-2.92,4h0l-3,4.121h0l-5.241,7.16h5.081l2.359-3.24,1.881,3.24h5.36l-4.241-7.361Zm-15.679,0h5.359l1.881,3.281-3,4.12Zm-65.6,6.481h5.6a1.334,1.334,0,0,0,1.479-1.24,1.111,1.111,0,0,0-1.16-1.44h-5.681Zm2.159-6.481h3.921a4.8,4.8,0,0,1,5.08,5.2,6.22,6.22,0,0,1-2.56,5.12l2.12,4.961h-5.119l-2.041-4.76h-4.04l-.481,4.76h-4.6l.84-8.4Zm24.921,15.282h-10.8c-3.079-.16-4.4-2.721-3.92-7.641s2.4-7.479,5.76-7.641h10.481l-.361,3.721h-9.319c-1.441-.04-1.441.76-1.761,1.92H508.8l-.4,3.64h-10.8c0,.68-.16,1.96.8,2.04h9.84Zm1.361,0,1.64-15.282h13.72c3.04-.08,4.48,1.52,4.28,4.842l-1.08,10.44h-3.88l.96-9.24c.12-1.16-.121-1.762-1-1.722h-2.041l-1.2,10.962h-3.84l1.161-10.962h-3.321l-1.159,10.962Zm20.079,0,1.041-10.4c.48-3.12,2.4-4.76,5.681-4.882h5.2c3,.2,4.4,1.842,4.2,4.882l-1.04,10.4h-4.04l.44-4.68h-6.8l-.442,4.68Z" fill="#231f20"/><path d="M562.4,1424.414a1.82,1.82,0,0,1,1.8,1.8,1.8,1.8,0,1,1-3.6,0,1.819,1.819,0,0,1,1.8-1.8Zm0-.279a2.065,2.065,0,0,1,2.08,2.079,2.081,2.081,0,1,1-4.161,0,2.066,2.066,0,0,1,2.081-2.079Zm-.72,1.879h.76a1.111,1.111,0,0,0,.4-.04.388.388,0,0,0,.2-.159.3.3,0,0,0,.08-.241.452.452,0,0,0-.12-.319.767.767,0,0,0-.48-.121h-.84Zm-.4,1.56v-2.76h1.24a1.847,1.847,0,0,1,.56.08.616.616,0,0,1,.319.24.9.9,0,0,1,.121.44.659.659,0,0,1-.2.48.857.857,0,0,1-.6.28,1.337,1.337,0,0,1,.24.119c.08.121.2.242.279.362l.48.759h-.44l-.358-.559c-.121-.16-.2-.32-.281-.4s-.12-.161-.2-.161a.207.207,0,0,0-.161-.079c-.039-.04-.08-.04-.2-.04h-.4v1.24Z" fill="#231f20" fill-rule="evenodd"/><path d="M473.394,1406.374h92.882a13.623,13.623,0,0,1,13.56,13.56h0a13.6,13.6,0,0,1-13.56,13.56H473.394a13.6,13.6,0,0,1-13.561-13.56h0a13.624,13.624,0,0,1,13.561-13.56Zm0,1.44h92.882a12.163,12.163,0,0,1,12.12,12.12h0a12.137,12.137,0,0,1-12.12,12.12H473.394a12.164,12.164,0,0,1-12.121-12.12h0a12.19,12.19,0,0,1,12.121-12.12Z" fill="#231f20" fill-rule="evenodd"/></g></svg>