<svg xmlns="http://www.w3.org/2000/svg" width="141.732" height="34.339" viewBox="0 0 141.732 34.339"><g transform="translate(-265.756 -179.694)"><path d="M311.31,187.048h12.317l-14.836,19.526-.02.028v2.408h17.577L324,206.68H312.135l14.377-19.526.02-.028v-2.408H308.955Z" fill-rule="evenodd"/><path d="M335.821,191.239c-5.336,0-7.93,2.84-7.93,8.679,0,6.119,2.909,9.092,8.894,9.092a20.35,20.35,0,0,0,5.439-.637l.08-.019v-2.32l-.135.038a19.333,19.333,0,0,1-5.049.608c-4.236,0-6.38-1.9-6.38-5.646v-.123h12.289l.012-.093a18.764,18.764,0,0,0,.128-2.1c0-5.032-2.407-7.478-7.348-7.478m-5.081,7.145c.2-3.219,1.913-4.85,5.081-4.85,2.992,0,4.546,1.633,4.614,4.854v.128h-9.7Z" fill-rule="evenodd"/><path d="M348.664,184.573l-2.411,2.387v17.318c0,3.184,1.4,4.732,4.28,4.732h2.817v-2.33h-2.016c-1.016,0-2.232-.458-2.232-2.644V193.568h4.248v-2.329h-4.686Z" fill-rule="evenodd"/><path d="M358.618,184.573,356.2,186.96v17.318c0,3.184,1.4,4.732,4.28,4.732H363.3v-2.33h-2.016c-1.02,0-2.232-.458-2.232-2.644V193.568H363.3v-2.329h-4.682Z" fill-rule="evenodd"/><path d="M373.533,191.239c-5.527,0-8.212,2.907-8.212,8.886.019,5.966,2.7,8.867,8.212,8.867,5.523,0,8.209-2.9,8.209-8.867s-2.686-8.886-8.209-8.886m0,15.441c-3.562,0-5.367-2.228-5.367-6.624,0-4.306,1.805-6.488,5.367-6.488s5.364,2.182,5.364,6.488C378.9,204.452,377.092,206.68,373.533,206.68Z" fill-rule="evenodd"/><path d="M393.262,191.239a8.787,8.787,0,0,0-5.826,2.272l-.2.167-2.395-2.6V209.01H387.7V195.985l.04-.038a7.365,7.365,0,0,1,5.109-2.309c2.654,0,4,1.389,4,4.135V209.01h2.85V197.825c0-4.432-2.1-6.586-6.428-6.586" fill-rule="evenodd"/><path d="M400.574,185.368h1.183v3.105h.686v-3.105h1.184v-.658h-3.052Z" fill-rule="evenodd"/><path d="M406.759,184.709l-1.088,2.395-1.092-2.395h-.713v3.764h.681l-.016-2.346.873,1.919h.538l.885-1.949-.032,2.377h.693v-3.764Z" fill-rule="evenodd"/><path d="M282.926,179.694A17.17,17.17,0,1,0,300.1,196.866a17.191,17.191,0,0,0-17.171-17.172m0,32.165a14.994,14.994,0,1,1,14.995-14.993A15.011,15.011,0,0,1,282.926,211.859Zm8.815-23.006h-.008l-.4-.4a11.978,11.978,0,0,0-16.812-.012l-.6.583,3.192,5.233,1.515-1.548-2.025-3.324a9.884,9.884,0,0,1,12.449-.15l-14.656,14.672-.3.316-.315.317.749.751a11.922,11.922,0,0,0,8.4,3.445h.012a11.918,11.918,0,0,0,8.4-3.457l.59-.59-3.192-5.224-1.514,1.548,2.028,3.354a9.757,9.757,0,0,1-12.461.159l15.247-15.288.035-.037-.326-.328Z" fill-rule="evenodd"/></g></svg>