<svg xmlns="http://www.w3.org/2000/svg" width="141.733" height="26.862" viewBox="0 0 141.733 26.862"><g transform="translate(-265.755 -278.314)"><path d="M272.228,278.479c6.3-.276,12.62-.044,18.932-.126a14.909,14.909,0,0,1,8.891,2.452,6.548,6.548,0,0,1,2.9,5.563c-.014,5.011.029,10.022-.019,15.034.038,2.128-2.177,3.265-4,3.6-2.491.358-5.722-.033-7-2.529-.314-2.816-.039-5.674-.126-8.5-1.533-2.578-4.914-1.828-7.42-1.94-2.447.141-5.7-.638-7.343,1.708-.048,2.09-.89,5.122,1.553,6.172,2.922.788,6.317-.663,8.949,1.19a1.876,1.876,0,0,1,.13,3.038c-1.751,1.4-4.121.832-6.181.943-3.377-.15-6.937.517-10.125-.919-2.549-.924-5.059-2.854-5.514-5.679-.087-2.423-.474-5.2,1.176-7.222,2.3-2.844,6.123-3.845,9.63-4.034,5.055-.024,10.115.029,15.174-.024a3.085,3.085,0,0,0-2.6-3.889c-5.34-.136-10.685.019-16.025-.068-1.374-.068-3.033-.667-3.449-2.118C269.611,279.625,271.038,278.88,272.228,278.479Z"/><path d="M310.784,278.537a8.134,8.134,0,0,1,4.813.421c1.422.817,2.061,2.423,2.917,3.743,3.434,5.582,6.849,11.174,10.3,16.751a3.626,3.626,0,0,1,.227,3.077,5.538,5.538,0,0,1-4.982,2.6c-1.751.077-3.942.044-4.982-1.63-3.991-6.39-7.875-12.852-11.807-19.276a3.291,3.291,0,0,1,.106-3.826A6.508,6.508,0,0,1,310.784,278.537Z"/><path d="M367.712,279.857c5.166-2.162,10.869-1.335,16.316-1.5,2.452.145,5.272-.542,7.357,1.132,1.349,1.33.077,3.313-1.529,3.6-5.408.963-11.357-.972-16.407,1.785-4.61,2.38-5.219,9.64-1.253,12.881a11.018,11.018,0,0,0,5.031,2.24c4.159.464,8.406-.276,12.537.4.557.3,1.123.57,1.708.822a2.413,2.413,0,0,1,.382,2.128,3.919,3.919,0,0,1-3.459,1.732c-4.991-.019-9.988.058-14.98-.044a19.3,19.3,0,0,1-10.874-4.435c-3.744-3.367-4.644-9.162-2.791-13.728C361.134,283.437,364.341,281.129,367.712,279.857Z"/><path d="M400.208,278.464a8.015,8.015,0,0,1,6,1.108,2.89,2.89,0,0,1,1.272,2.438c.019,6.452.005,12.9.005,19.353.077,1.969-1.916,3.168-3.6,3.555-2.423.436-5.408.232-7.057-1.838a3.067,3.067,0,0,1-.5-2.191c.024-6.279-.015-12.562.019-18.845C396.232,279.944,398.447,278.837,400.208,278.464Z"/><path d="M347.314,280.6c1.751-3.018,6.153-2.626,8.808-1.127a3.3,3.3,0,0,1,1.335,4.562c-3.574,5.92-7.231,11.793-10.806,17.713-.716,1.2-1.417,2.6-2.825,3.1-3.008.783-6.868.275-8.556-2.651-2.724-4.034-5.495-8.039-8.248-12.054a2.306,2.306,0,0,1,.8-3.41c1.732-.992,4.533-1.166,5.665.8,1.707,2.665,3.41,5.335,5.069,8.039Q342.93,288.077,347.314,280.6Z"/><path d="M373.676,290.629a5.564,5.564,0,0,1,3.555-1.518c3.9-.005,7.807-.049,11.711.029,1.161.4,2.6.706,3.043,2.026.251,2.192-2.371,2.845-4.049,3.038-3.42.053-6.845.039-10.264.005-1.34-.208-2.951-.4-3.831-1.558C373.362,292.066,373.666,291.3,373.676,290.629Z"/></g></svg>