<svg xmlns="http://www.w3.org/2000/svg" width="141.732" height="27.479" viewBox="0 0 141.732 27.479"><g transform="translate(-92 -278.005)"><path d="M92,278.031h6.938v22.02h19.118v5.433H92V278.031Z" fill="#ff5100" fill-rule="evenodd"/><path d="M127.321,283.23H141.44l2.78,2.175v12.748l-2.737,2.142H127.321Zm-6.716-5.205h24.082l6.249,4.871V300.66l-6.162,4.824H120.605Z" fill="#ff5100" fill-rule="evenodd"/><path d="M160.151,305.467h-6.627V278.024H158l2.154,1.687,21.036,16.48V278.024h6.626v27.443h-4.641l-23.022-18.042Z" fill="#ff5100" fill-rule="evenodd"/><rect width="6.939" height="27.477" transform="translate(190.399 278.007)" fill="#ff5100"/><path d="M224.188,283.543l2.517,1.927v12.54l-2.474,1.936h-14.8l-2.473-1.936V285.47l2.517-1.927h14.712m3.469-5.538,6.075,4.756V300.8l-5.989,4.688H205.919l-5.987-4.688V282.761l6.075-4.756Z" fill="#ff5100" fill-rule="evenodd"/></g></svg>