<svg xmlns="http://www.w3.org/2000/svg" width="141.732" height="32.03" viewBox="0 0 141.732 32.03"><g transform="translate(-265.756 -85.968)"><path d="M296.275,89.464l-11.244,11.244L285.6,94Z" fill="#d82628"/><path d="M354.008,100.188l-.236,1.889H361.8l.188-1.511c.143-1.371-.047-2.268-1.227-2.315H355.9c-1.276.047-1.8.661-1.89,1.937ZM386.464,94h-6l-3.449,4.725h0l-3.544,4.867h0l-6.189,8.457h6l2.786-3.827,2.222,3.827h6.33l-5.009-8.694Zm-18.519,0h6.33l2.221,3.875-3.543,4.865Zm-77.481,7.654h6.615a1.576,1.576,0,0,0,1.748-1.464,1.312,1.312,0,0,0-1.37-1.7h-6.71ZM293.014,94h4.631a5.668,5.668,0,0,1,6,6.142,7.343,7.343,0,0,1-3.023,6.047l2.5,5.86h-6.047l-2.41-5.622H289.9l-.568,5.622H283.9l.992-9.922Zm29.434,18.049H309.693c-3.638-.189-5.2-3.214-4.631-9.024s2.835-8.834,6.8-9.025h12.378l-.426,4.395H312.812c-1.7-.047-1.7.9-2.08,2.267h12.851l-.474,4.3H310.354c0,.8-.189,2.314.945,2.409h11.622Zm1.607,0L325.992,94h16.2c3.591-.094,5.292,1.795,5.056,5.718l-1.276,12.331h-4.582l1.133-10.913c.142-1.371-.142-2.081-1.181-2.033h-2.41l-1.418,12.946h-4.534l1.37-12.946h-3.922l-1.369,12.946Zm23.715,0L349,99.763c.566-3.685,2.835-5.622,6.709-5.765h6.14c3.544.238,5.2,2.175,4.961,5.765l-1.228,12.284h-4.771l.52-5.528H353.3l-.522,5.528Z"/><path d="M386.89,107.274a2.15,2.15,0,0,1,2.126,2.126,2.126,2.126,0,1,1-4.252,0,2.148,2.148,0,0,1,2.126-2.126Zm0-.329a2.439,2.439,0,0,1,2.456,2.455,2.457,2.457,0,1,1-4.914,0,2.44,2.44,0,0,1,2.458-2.455Zm-.85,2.219h.9a1.322,1.322,0,0,0,.472-.047.472.472,0,0,0,.236-.188.351.351,0,0,0,.094-.284.531.531,0,0,0-.142-.377.9.9,0,0,0-.566-.144h-.992Zm-.473,1.843v-3.26h1.465a2.2,2.2,0,0,1,.661.094.731.731,0,0,1,.377.283,1.079,1.079,0,0,1,.142.521.778.778,0,0,1-.236.566,1.009,1.009,0,0,1-.709.331,1.525,1.525,0,0,1,.284.141c.1.142.236.285.33.427l.567.9h-.52l-.423-.661c-.143-.189-.238-.378-.331-.474s-.142-.189-.236-.189a.251.251,0,0,0-.191-.094c-.047-.047-.1-.047-.236-.047h-.471v1.465Z" fill-rule="evenodd"/><path d="M281.772,85.968h109.7a16.09,16.09,0,0,1,16.016,16.016h0A16.059,16.059,0,0,1,391.472,118h-109.7a16.059,16.059,0,0,1-16.016-16.014h0a16.089,16.089,0,0,1,16.016-16.016Zm0,1.7h109.7a14.365,14.365,0,0,1,14.314,14.316h0A14.334,14.334,0,0,1,391.472,116.3h-109.7a14.366,14.366,0,0,1-14.316-14.314h0a14.4,14.4,0,0,1,14.316-14.316Z" fill-rule="evenodd"/></g></svg>