<svg xmlns="http://www.w3.org/2000/svg" width="141.732" height="37.824" viewBox="0 0 141.732 37.824"><g transform="translate(-265.756 -367.714)"><path d="M316.475,395.192h-2.354a12.859,12.859,0,0,1-6.665-2.25,10.543,10.543,0,0,1-4.639-9.111,10.878,10.878,0,0,1,4.475-9.179,12.059,12.059,0,0,1,6.378-2.351h2.989v1.861H313.67a10.17,10.17,0,0,0-5.278,1.99,8.9,8.9,0,0,0-2.6,2.946,9.825,9.825,0,0,0-1.113,4.733,8.67,8.67,0,0,0,3.832,7.578,11.024,11.024,0,0,0,5.611,1.922h2.354Z" fill="#ccc"/><path d="M331.167,395.192H325.6a7.793,7.793,0,0,1-5.377-2.4,7.678,7.678,0,0,1-2.394-5.272c-.023-.472-.018-.945-.011-1.656.005-.478.011-1.072.011-1.864a7.125,7.125,0,0,1,2.074-4.39,7.736,7.736,0,0,1,5.66-2.554,7.15,7.15,0,0,1,5.548,2.4,8.045,8.045,0,0,1,1.922,5.329v.93H319.684v.163c-.007.713-.012,1.143.009,1.566l0,.047a6.39,6.39,0,0,0,5.91,5.835h5.563ZM319.7,383.859h11.416a6,6,0,0,0-1.4-3.17,5.333,5.333,0,0,0-4.149-1.772,5.961,5.961,0,0,0-4.3,1.965A5.841,5.841,0,0,0,319.7,383.859Z" fill="#ccc"/><path d="M348.553,395.7a8.77,8.77,0,0,1-2.34-.324,7.676,7.676,0,0,1-4.675-3.416c-.252-.4-.48-.815-.823-1.437-.23-.419-.517-.94-.906-1.629a7.127,7.127,0,0,1-.35-4.843,7.738,7.738,0,0,1,3.675-5,7.146,7.146,0,0,1,6.014-.631,8.041,8.041,0,0,1,4.292,3.7l.457.81-11.631,6.559.079.143c.344.625.551,1,.778,1.36l.024.04a6.388,6.388,0,0,0,8.014,2.179l4.846-2.732.914,1.62-4.846,2.733A7.167,7.167,0,0,1,348.553,395.7Zm-1.7-15.815a5.7,5.7,0,0,0-2.81.782,5.96,5.96,0,0,0-2.781,3.825,5.842,5.842,0,0,0,.1,3.363l9.943-5.608a6,6,0,0,0-2.775-2.075A5.043,5.043,0,0,0,346.858,379.884Z" fill="#2deae0"/><rect width="1.861" height="26.198" transform="translate(336.025 369.191)" fill="#ccc"/><path d="M363.229,396.319H358.3V369.191h1.86v9.2h3.355a8.644,8.644,0,0,1,5.241,1.847,8.483,8.483,0,0,1,3.019,6.977,8.681,8.681,0,0,1-3.338,7.124A9.068,9.068,0,0,1,363.229,396.319Zm-3.073-1.86h3.073a7.127,7.127,0,0,0,6.681-7.245,6.385,6.385,0,0,0-6.4-6.963h-3.355Z" fill="#ccc"/><rect width="1.861" height="19.057" transform="translate(375.21 375.938)" fill="#ccc"/><path d="M376.99,381.166l-1.7-.759c1.43-3.2,5.123-3.2,7.107-3.2v1.861a11.82,11.82,0,0,0-3.152.3A3.24,3.24,0,0,0,376.99,381.166Z" fill="#ccc"/><path d="M397.029,395.84h-1.86V383.775a4.4,4.4,0,0,0-1.653-3.615,5.028,5.028,0,0,0-2.942-1.093,9.094,9.094,0,0,0-5.005,2.054l-1.154-1.458a10.847,10.847,0,0,1,6.159-2.457,6.822,6.822,0,0,1,4.1,1.5,6.238,6.238,0,0,1,2.35,5.068Z" fill="#ccc"/><path d="M390.038,395.925a7.02,7.02,0,1,1,6.991-7.02A7.013,7.013,0,0,1,390.038,395.925Zm0-12.178a5.159,5.159,0,1,0,5.131,5.158A5.151,5.151,0,0,0,390.038,383.747Z" fill="#ccc"/><path d="M407.488,395.192h-1.353c-3.96,0-6.23-1.819-6.23-4.99V372.1h1.86v18.1a2.619,2.619,0,0,0,1.266,2.457,6.169,6.169,0,0,0,3.1.672h1.353Z" fill="#ccc"/><rect width="5.864" height="1.861" transform="translate(400.835 377.488)" fill="#ccc"/><path d="M290.947,372.036a14.757,14.757,0,1,0-14.93,24.5l.543-1.781a12.872,12.872,0,1,1,8.576-.235,11.621,11.621,0,0,1-1.934,2.466,14.759,14.759,0,0,0,7.745-24.947Z" fill="#2deae0"/><path d="M288.744,381.142a8.232,8.232,0,0,0-8.231-8.232,8.528,8.528,0,0,0-8.423,8.384,8.434,8.434,0,0,0,2.227,5.638c2.17,2.292,3.2,4.229,3.185,7.217-.011,2.255-.874,5.412-11.022,11.389,3.368-1.3,19.16-3.368,21.875-20.673A27.764,27.764,0,0,0,288.744,381.142Zm-8.231-4.849a4.849,4.849,0,1,1-4.849,4.849A4.849,4.849,0,0,1,280.513,376.293Z" fill="#2deae0"/></g></svg>