<svg xmlns="http://www.w3.org/2000/svg" width="120.053" height="28.888" viewBox="0 0 120.053 28.888"><path d="M216.224,1419.492c2.357-2.71,2.428-6.271,9.2-6.271,3.46,0,8.566.549,8.566,6.271v8.98c0,1.72.052,3.381,1.7,4.464h-5.323c-1.262,0-1.556-1.938-1.564-2.086-1.648,1.717-3.809,2.086-6.11,2.086-2.88,0-6.468-.768-6.468-5.416,0-3.667,2.918-5.15,6.542-5.907,2.738-.573,6.024-.588,6.024-2.121,0-1.486-1.172-2.706-3.384-2.706a3.489,3.489,0,0,0-3.173,1.408,1.95,1.95,0,0,1-1.982,1.3ZM228.8,1423.1c-.875.934-2.777,1.3-4.428,1.533-2.729.389-3.741,1.252-3.7,2.691.059,2.085,3,1.944,4.225,1.859a3.8,3.8,0,0,0,3.9-3.82Zm70.452,3.6a1.5,1.5,0,0,1,1.431.826c.235.405,1.2,1.882,3.871,1.741,2.581-.136,3.075-1.52,2.867-2.439-.259-1.148-1.8-1.992-6.036-2.38-3.5-.321-6.482-2.005-6.482-4.922,0-2.988,1.654-6.283,8.687-6.283a9.351,9.351,0,0,1,5.53,1.608,10.164,10.164,0,0,1,3.224,3.988,1.382,1.382,0,0,0,.9.652h-5.2c-.77,0-.872-.451-1.044-.906a3.589,3.589,0,0,0-3.393-1.8c-2.615-.051-3.372,1.038-3.495,1.49-.631,2.3,2.918,2.377,6.209,3.011a8.959,8.959,0,0,1,4.542,1.8,4.468,4.468,0,0,1,1.749,3.691c0,2.075-1.1,6.149-8.272,6.149-6.431,0-8.2-3.73-8.824-4.87-.2-.369-.2-.373-.325-.589-.337-.565-1.133-.764-.937-.764h5Zm-25.327,0h-3.973c-.675,0-.792.185-.937.412a3.522,3.522,0,0,1-3.232,2.157c-3.648,0-4.432-2.353-4.432-3.894,0-.471.024-.926.784-.926h11.021a.789.789,0,0,0,.769-.776c.27-5.675-2.29-10.409-8.887-10.409-6.66,0-8.879,5.518-8.879,9.816,0,3.451,1.271,6.1,3.173,7.628a9.926,9.926,0,0,0,6.51,2.228,7.736,7.736,0,0,0,6.176-2.611c1.323-1.684,1.558-2.777,2.816-3.625Zm-12.578-6.291a3.8,3.8,0,0,1,4.005-3.616,3.982,3.982,0,0,1,4.11,3.741c-.044.483-.232.706-.717.706h-6.586A.763.763,0,0,1,261.349,1420.407Zm-51.262-.936a6.167,6.167,0,0,0,2.866-5.507,6.1,6.1,0,0,0-1.423-3.811c-1.455-1.742-3.024-2.365-6.075-2.413-8.711-.141-12.261-2.25-12.261-2.25v28.888a40.519,40.519,0,0,1,11.433-1.322,20.475,20.475,0,0,0,3.476-.18,7.064,7.064,0,0,0,6.02-7.142A7.123,7.123,0,0,0,210.087,1419.471Zm-11.7-7.334h5.389a9.882,9.882,0,0,1,2.091.121,2.814,2.814,0,0,1,1.655.954,2.854,2.854,0,0,1,.561,1.831c0,1.186-.934,2.675-3.66,2.675h-6.036Zm8.6,16.075a4.865,4.865,0,0,1-2.564.449h-6.033v-6.751H204.5a6.244,6.244,0,0,1,2.538.428,3.094,3.094,0,0,1,1.659,2.922A3.145,3.145,0,0,1,206.984,1428.212Zm74.512-1.835a2.892,2.892,0,0,0,5.784,0l.028-1.052v-11.259a.8.8,0,0,1,.686-.8h6.7c-.16.078-.321.157-.478.236a3.239,3.239,0,0,0-1.717,2.866v8.229a9.981,9.981,0,0,1-.35,3.3,8.106,8.106,0,0,1-7.729,5.044c-3.679,0-7.162-2.254-7.963-5.648v0a18.021,18.021,0,0,1-.156-2.515v-8.228a3.648,3.648,0,0,0-1.541-3.083,4.236,4.236,0,0,0-.479-.234H280.6a.924.924,0,0,1,.893.961c0,3.522.016,7.377.016,11.141Zm-40.978.35a1.5,1.5,0,0,1,1.43.827c.236.405,1.205,1.879,3.872,1.741,2.576-.137,3.074-1.525,2.866-2.439-.258-1.153-1.8-1.992-6.039-2.38-3.5-.322-6.483-2.005-6.483-4.926,0-2.985,1.659-6.279,8.691-6.279a9.325,9.325,0,0,1,5.53,1.607,10.156,10.156,0,0,1,3.224,3.989,1.383,1.383,0,0,0,.9.652h-5.2c-.765,0-.867-.452-1.042-.911a3.573,3.573,0,0,0-3.389-1.8c-2.616-.056-3.378,1.039-3.5,1.49-.632,2.3,2.921,2.376,6.212,3.008a8.993,8.993,0,0,1,4.541,1.8,4.48,4.48,0,0,1,1.749,3.686c0,2.074-1.094,6.154-8.271,6.154-6.436,0-8.2-3.73-8.824-4.871-.2-.369-.2-.372-.326-.588-.341-.565-1.133-.765-.937-.765h5Z" transform="translate(-193.194 -1405.49)"/></svg>