<svg xmlns="http://www.w3.org/2000/svg" width="141.732" height="44.843" viewBox="0 0 141.732 44.843"><g transform="translate(-92 -364.204)"><path d="M128.121,405.5v3.547H116.1V389.341c-.051-5.443-3.427-5.912-5.251-5.944-1.7-.031-4.081.543-6.82,3.259v16.409c.753.133,2.97.531,3.058.547a1.739,1.739,0,0,1,1.51,1.888v3.547H92V405.5a1.739,1.739,0,0,1,1.51-1.888c.087-.016,2.307-.414,3.061-.547V370.186l-3.062-.547A1.738,1.738,0,0,1,92,367.751V364.2h12.025v17.231a12.639,12.639,0,0,1,9.083-3.832c3.841.049,6.115,1.373,7.771,3.274.891,1.022,2.639,3.521,2.67,8.464v13.723c.754.133,2.974.532,3.062.548A1.739,1.739,0,0,1,128.121,405.5Z" fill-rule="evenodd"/><path d="M233.732,404.474a4.573,4.573,0,1,1-4.573-4.573A4.573,4.573,0,0,1,233.732,404.474Z" fill-rule="evenodd"/><path d="M189.768,403.964a14.3,14.3,0,0,1-7.935,4.656,16.342,16.342,0,0,1-9.658-.657c-5.832-2.464-8.51-8.707-8.51-14.718,0-9.96,5.63-13.6,8.4-14.827a16.921,16.921,0,0,1,8.361-1.176,36.164,36.164,0,0,1,8.017,2.143q0,4.755,0,9.51h-3.474c-1.083,0-1.385-.625-1.493-1.728-.124-1.257-.277-2.511-.4-3.768-2.78-.695-5.924-1.058-8.391.727s-3.228,5.016-3.361,7.9c-.135,2.932.231,6.224,2.029,8.664,1.753,2.38,4.618,3.012,7.382,2.534a8.7,8.7,0,0,0,3.6-1.717,3.566,3.566,0,0,1,1.764-.947,1.6,1.6,0,0,1,1.529.687Z" fill-rule="evenodd"/><path d="M145.426,377.149c-8.459,0-15.316,5.427-15.316,15.949,0,10.4,6.724,15.949,15.316,15.949,8.652,0,15.315-5.506,15.315-15.949,0-10.65-6.8-15.949-15.315-15.949Zm0,26.183h0c-4.2,0-7.6-2.349-7.6-10.215,0-7.586,3.164-10.252,7.6-10.252,4.278,0,7.6,2.4,7.6,10.252C153.025,401.217,149.537,403.332,145.426,403.332Z" fill-rule="evenodd"/><path d="M206.71,377.149c-8.458,0-15.315,5.427-15.315,15.949,0,10.4,6.724,15.949,15.315,15.949,8.653,0,15.316-5.506,15.316-15.949,0-10.65-6.8-15.949-15.316-15.949Zm0,26.183h0c-4.2,0-7.6-2.349-7.6-10.215,0-7.586,3.164-10.252,7.6-10.252,4.279,0,7.6,2.4,7.6,10.252C214.31,401.217,210.822,403.332,206.71,403.332Z" fill-rule="evenodd"/></g></svg>