<svg xmlns="http://www.w3.org/2000/svg" width="141.733" height="28.287" viewBox="0 0 141.733 28.287"><g transform="translate(-464.302 -182.72)"><path d="M487.622,204.5a10.792,10.792,0,1,0-3.162-7.632,10.757,10.757,0,0,0,3.162,7.632m7.631,6.511a14.145,14.145,0,1,1,10-4.143A14.1,14.1,0,0,1,495.253,211.007Z" fill="#666" fill-rule="evenodd"/><path d="M464.3,196.726a12.656,12.656,0,0,1,1.3-5.58,13.931,13.931,0,0,1,3.312-4.3,15.318,15.318,0,0,1,4.443-2.722,12.777,12.777,0,0,1,4.685-.95h3.79v4.079h-3.2a10.977,10.977,0,0,0-5.438,1.567,8.875,8.875,0,0,0-3.283,3.567,10.179,10.179,0,0,0-1.075,4.573,12.3,12.3,0,0,0,.785,4.114,8.244,8.244,0,0,0,2.937,3.777,9.923,9.923,0,0,0,5.978,1.619h3.3v4.079H477.9a13.6,13.6,0,0,1-7.019-1.828,12.862,12.862,0,0,1-4.844-5.006,14.366,14.366,0,0,1-1.734-6.991" fill="#666" fill-rule="evenodd"/><path d="M521.93,186.872v24.135h-4.385V186.872H508.04V182.72H531.4v4.152Z" fill="#666" fill-rule="evenodd"/><path d="M533.906,194.451h13.807v4.036H533.784a8.654,8.654,0,0,0,1.357,3.8,9.569,9.569,0,0,0,3.791,3.361,11.709,11.709,0,0,0,4.944,1.248h3.837v4.108H543.5a15.074,15.074,0,0,1-4.645-.778,13.944,13.944,0,0,1-4.567-2.545,13.019,13.019,0,0,1-3.506-4.713,16.45,16.45,0,0,1-1.33-6.852,13.688,13.688,0,0,1,1.463-5.838,13.167,13.167,0,0,1,4.9-5.343,15.842,15.842,0,0,1,8.669-2.207h3.23v4.036h-3.381a11.339,11.339,0,0,0-5.68,1.346,9.5,9.5,0,0,0-3.578,3.427,10.074,10.074,0,0,0-1.168,2.911" fill="#666" fill-rule="evenodd"/><path d="M564.834,195.61a6.084,6.084,0,0,0-2.167-1.583,8.012,8.012,0,0,0-3.319-.688,7.735,7.735,0,0,0-3.205.688,7.082,7.082,0,0,0-2.655,2.115,8.466,8.466,0,0,0-1.581,3.578c-.038.219-.054.455-.071.677-.02.261-.043.527-.083.787a8.9,8.9,0,0,0,.663,3.093,7.617,7.617,0,0,0,1.915,2.708,8.105,8.105,0,0,0,3.271,1.775c.562.067,1.143.132,1.7.231a8.165,8.165,0,0,0,3.941-1.032,7.434,7.434,0,0,0,2.763-2.712,8.613,8.613,0,0,0,1.168-3.837l.023-.342h2.242l-.015.382a10.06,10.06,0,0,1-1.515,5.123,9.258,9.258,0,0,1-3.623,3.3,10.232,10.232,0,0,1-4.705,1.13,10.074,10.074,0,0,1-5.081-1.319,9.886,9.886,0,0,1-3.658-3.592,10.155,10.155,0,0,1-1.417-5v-.018a10.288,10.288,0,0,1,1.381-4.919,9.981,9.981,0,0,1,3.554-3.635,9.357,9.357,0,0,1,4.909-1.352,10.466,10.466,0,0,1,5.183,1.323,8.807,8.807,0,0,1,3.494,3.335l.165.295-13.778,9.314L553,203.64Z" fill="#666" fill-rule="evenodd"/><path d="M577.413,208.912c.784-.074,1.592-.084,2.378-.084h.367v2.179h-3.369a5.6,5.6,0,0,1-3.883-1.52,5.7,5.7,0,0,1-1.52-4.242V186.779h2.25v5.048h6.522v2.133h-6.522v11.882a3.029,3.029,0,0,0,1.087,2.359,5.764,5.764,0,0,0,2.69.711" fill="#666" fill-rule="evenodd"/><path d="M581.129,196.728a13.07,13.07,0,0,1,1.348-5.763,14.381,14.381,0,0,1,3.42-4.438,15.828,15.828,0,0,1,4.59-2.813,13.177,13.177,0,0,1,4.838-.98h3.906v4.192h-3.3a11.377,11.377,0,0,0-5.629,1.621,9.2,9.2,0,0,0-3.4,3.693,10.537,10.537,0,0,0-1.113,4.732,12.715,12.715,0,0,0,.813,4.258,8.524,8.524,0,0,0,3.04,3.91,10.27,10.27,0,0,0,6.186,1.676h3.4v4.192h-4.059a14.061,14.061,0,0,1-7.25-1.887,13.3,13.3,0,0,1-5-5.172,14.842,14.842,0,0,1-1.79-7.22" fill="#666" fill-rule="evenodd"/><path d="M601.646,182.727h4.373l.015,3.825v24.455h-4.385V186.553Z" fill="#666" fill-rule="evenodd"/></g></svg>