<svg xmlns="http://www.w3.org/2000/svg" width="141.732" height="44.642" viewBox="0 0 141.732 44.642"><g transform="translate(-265.756 -554.066)"><path d="M281.47,554.234a5.423,5.423,0,0,1,4.459.73,3.911,3.911,0,0,1,1.237,3.661,7.165,7.165,0,0,1-5.88,6.012,4.9,4.9,0,0,1-4.419-1.118,4.334,4.334,0,0,1-.73-4.167A7.22,7.22,0,0,1,281.47,554.234Z"/><path d="M322.274,554.12c3.582-.054,7.166-.038,10.748-.009q-2.756,9.294-5.481,18.6a11.373,11.373,0,0,1-.76,2.231L317.3,588.769c-2.26,3.262-4.456,6.572-6.758,9.8C314.448,583.754,318.393,568.946,322.274,554.12Z"/><path d="M273.988,567.542c3.589.02,7.181,0,10.772.011q-4.105,15.54-8.211,31.085c-3.6.007-7.2.023-10.793-.009C268.512,588.27,271.218,577.9,273.988,567.542Z"/><path d="M286.812,567.542c3.1.029,6.189-.016,9.282.024-.184,1.3-.378,2.6-.515,3.9.544-.378.988-.88,1.53-1.259a14.261,14.261,0,0,1,9.732-2.582,6.371,6.371,0,0,1,6.425,6.9c.069,2.911-.861,5.7-1.573,8.487-1.389,5.21-2.735,10.431-4.148,15.634-3.591-.022-7.181,0-10.77-.009q2.306-8.732,4.615-17.464a7.982,7.982,0,0,0,.306-3.759,2.035,2.035,0,0,0-1.323-1.5,3.9,3.9,0,0,0-3.412.631,6.907,6.907,0,0,0-2.535,3.9c-1.613,6.061-3.2,12.127-4.814,18.19-3.588,0-7.177-.013-10.765.007,1.96-7.642,4.041-15.252,6.014-22.892C285.564,573.036,286.162,570.283,286.812,567.542Z"/><path d="M336.937,567.56c4.182-.025,8.364,0,12.546-.012-4,4.928-8,9.865-12.031,14.768,1.608,5.454,3.3,10.884,4.942,16.329-3.286,0-6.57-.007-9.856.005-.9-2.332-1.783-4.675-2.672-7.013-1.963,2.289-3.8,4.69-5.728,7.011-3.96,0-7.92-.01-11.878,0-.135-.027-.728.074-.488-.2C320.118,588.124,328.593,577.894,336.937,567.56Z"/><path d="M370.971,567.553c3.722-.007,7.443,0,11.163-.005,8.427,10.385,16.919,20.718,25.354,31.1q-5.58,0-11.157,0Q383.65,583.1,370.971,567.553Z"/><path d="M395.973,567.551q5.58,0,11.159,0-6.1,7.543-12.266,15.039c-1.622-2.508-3.3-4.981-4.923-7.485C391.963,572.595,393.963,570.07,395.973,567.551Z"/><path d="M349.349,570.391a32.459,32.459,0,0,1,13.513-2.845,10.474,10.474,0,0,1,7.251,2.6,8.759,8.759,0,0,1,2.388,6.382c.033,2.542-.831,4.961-1.438,7.4-.914,3.56-1.938,7.1-2.753,10.683a29.86,29.86,0,0,0-.645,4.042q-4.828,0-9.655,0c1.369-7.317,2.708-14.642,4.115-21.951a1.77,1.77,0,0,0-1.028-1.682,7.389,7.389,0,0,0-3.479-.565,19.926,19.926,0,0,0-8.252,2.205Q349.346,573.522,349.349,570.391Z"/><path d="M354.711,578.394a33.006,33.006,0,0,1,5.575-.748c-.477,2.244-.927,4.493-1.424,6.731a8.945,8.945,0,0,0-4.407,1.465,4.691,4.691,0,0,0-1.939,3.848,1.843,1.843,0,0,0,1.3,1.723,4.89,4.89,0,0,0,3.725-.639,12.385,12.385,0,0,1-3.7,6,8.057,8.057,0,0,1-6.184,1.872,6.416,6.416,0,0,1-4.467-2.659,7.99,7.99,0,0,1-1.388-5.2,12.222,12.222,0,0,1,3.772-7.886A19.278,19.278,0,0,1,354.711,578.394Z"/><path d="M370.621,598.643c4.225-5.19,8.476-10.36,12.694-15.556,1.657,2.495,3.25,5.031,4.89,7.537q-3.205,4.024-6.431,8.028C378.056,598.636,374.339,598.652,370.621,598.643Z"/></g></svg>