<svg xmlns="http://www.w3.org/2000/svg" width="141.732" height="27.447" viewBox="0 0 141.732 27.447"><g transform="translate(-92 -562.664)"><path d="M159.205,589.5l3.537-18.9,1.183,18.827a.621.621,0,0,0,.62.581h5.075a.618.618,0,0,0,.56-.353l9.065-19.055-3.917,18.661a.62.62,0,0,0,.607.747h5.457a.619.619,0,0,0,.606-.487l5.591-25.432a.62.62,0,0,0-.605-.754h-9.432a.621.621,0,0,0-.555.343l-7.924,15.848-1.3-15.622a.621.621,0,0,0-.619-.569h-7.317c-1.453,0-1.868.83-2.231,2.232s-5.06,21.717-5.241,22.6-.208,1.842.908,1.842H158.6A.62.62,0,0,0,159.205,589.5Z"/><path d="M195.8,590.007h-6.83a.62.62,0,0,1-.608-.743l5.158-25.433a.621.621,0,0,1,.608-.5h6.83a.62.62,0,0,1,.608.744l-5.158,25.432A.62.62,0,0,1,195.8,590.007Z"/><path d="M233.11,563.334h-6.4a.621.621,0,0,0-.455.2l-6.73,7.251-3.932-7.128a.62.62,0,0,0-.543-.321H208.37a.621.621,0,0,0-.544.92l6.618,12-11.8,12.712a.62.62,0,0,0,.455,1.042h6.4a.617.617,0,0,0,.454-.2l7.507-8.086,4.392,7.964a.619.619,0,0,0,.543.32h6.679a.62.62,0,0,0,.543-.92l-7.079-12.834,11.025-11.877A.62.62,0,0,0,233.11,563.334Z"/><path d="M131.4,579.006c0-1.038,1.349-10.015,6.694-10.015.034,0,.064,0,.1,0l1.278-6.331c-17.086.173-16.268,15.775-16.268,16.5,0,.7-.525,10.194,10.754,10.813l1.237-6.126C131.216,583.474,131.4,579.988,131.4,579.006Z"/><path d="M140.733,562.691l-1.3,6.451c2.417.576,3.073,2.729,3.073,4.467,0,1.943-1.724,9.623-6.041,10.232l-1.245,6.164c12.43-.045,16.264-10.13,16.264-15.981C151.482,568.4,148.141,563.119,140.733,562.691Z" fill="#0eab5c"/><path d="M120.19,570.6c.623-4.151-2.491-7.68-7.265-7.68H99.81a2.766,2.766,0,0,0-2.707,2.2l-5.09,24.246a.62.62,0,0,0,.607.748h7.336a.621.621,0,0,0,.61-.505l1.98-10.5a16.745,16.745,0,0,1,1.868-.1c1.724,1.633,4.48,8.9,5.145,10.7a.62.62,0,0,0,.582.4h7.253a.621.621,0,0,0,.611-.738c-.673-3.435-3.743-8.963-5.288-10.99C118.01,577.449,119.567,574.751,120.19,570.6Zm-11.365,2.854h-4.982l.779-4.774h5.241c1.453,0,2.491.415,2.491,1.972S110.693,573.453,108.825,573.453Z"/></g></svg>