<svg xmlns="http://www.w3.org/2000/svg" width="141.733" height="37.824" viewBox="0 0 141.733 37.824"><g transform="translate(-638.058 -367.714)"><path d="M688.778,395.192h-2.354a12.859,12.859,0,0,1-6.665-2.25,10.543,10.543,0,0,1-4.639-9.111,10.875,10.875,0,0,1,4.475-9.179,12.056,12.056,0,0,1,6.378-2.351h2.988v1.861h-2.988a10.17,10.17,0,0,0-5.278,1.99,8.9,8.9,0,0,0-2.6,2.946,9.825,9.825,0,0,0-1.114,4.733,8.671,8.671,0,0,0,3.833,7.578,11.024,11.024,0,0,0,5.611,1.922h2.354Z" fill="#666"/><path d="M703.47,395.192h-5.563a7.793,7.793,0,0,1-5.377-2.4,7.674,7.674,0,0,1-2.394-5.272c-.023-.472-.018-.945-.011-1.656.005-.478.011-1.072.011-1.864a7.125,7.125,0,0,1,2.074-4.39,7.735,7.735,0,0,1,5.66-2.554,7.147,7.147,0,0,1,5.547,2.4,8.041,8.041,0,0,1,1.923,5.329v.93H691.987v.163c-.007.713-.012,1.143.009,1.566l0,.047a6.39,6.39,0,0,0,5.91,5.835h5.563ZM692,383.859h11.416a6,6,0,0,0-1.4-3.17,5.333,5.333,0,0,0-4.149-1.772,5.961,5.961,0,0,0-4.3,1.965A5.841,5.841,0,0,0,692,383.859Z" fill="#666"/><path d="M720.856,395.7a8.764,8.764,0,0,1-2.34-.324,7.676,7.676,0,0,1-4.675-3.416c-.252-.4-.48-.815-.823-1.437-.231-.419-.517-.94-.906-1.629a7.127,7.127,0,0,1-.35-4.843,7.731,7.731,0,0,1,3.675-5,7.146,7.146,0,0,1,6.014-.631,8.041,8.041,0,0,1,4.292,3.7l.457.81-11.631,6.559.079.143c.344.625.551,1,.778,1.36l.024.04a6.388,6.388,0,0,0,8.014,2.179l4.846-2.732.914,1.62-4.846,2.733A7.166,7.166,0,0,1,720.856,395.7Zm-1.7-15.815a5.7,5.7,0,0,0-2.81.782,5.96,5.96,0,0,0-2.781,3.825,5.833,5.833,0,0,0,.1,3.363l9.943-5.608a6,6,0,0,0-2.775-2.075A5.043,5.043,0,0,0,719.161,379.884Z" fill="#666"/><rect width="1.861" height="26.198" transform="translate(708.328 369.191)" fill="#666"/><path d="M735.532,396.319H730.6V369.191h1.86v9.2h3.355a8.644,8.644,0,0,1,5.241,1.847,8.483,8.483,0,0,1,3.019,6.977,8.684,8.684,0,0,1-3.338,7.124A9.068,9.068,0,0,1,735.532,396.319Zm-3.073-1.86h3.073a7.127,7.127,0,0,0,6.681-7.245,6.385,6.385,0,0,0-6.4-6.963h-3.355Z" fill="#666"/><rect width="1.861" height="19.057" transform="translate(747.513 375.938)" fill="#666"/><path d="M749.292,381.166l-1.7-.759c1.43-3.2,5.123-3.2,7.107-3.2v1.861a11.82,11.82,0,0,0-3.152.3A3.244,3.244,0,0,0,749.292,381.166Z" fill="#666"/><path d="M769.332,395.84h-1.86V383.775a4.4,4.4,0,0,0-1.653-3.615,5.029,5.029,0,0,0-2.943-1.093,9.094,9.094,0,0,0-5,2.054l-1.155-1.458a10.853,10.853,0,0,1,6.159-2.457,6.817,6.817,0,0,1,4.105,1.5,6.236,6.236,0,0,1,2.351,5.068Z" fill="#666"/><path d="M762.341,395.925a7.02,7.02,0,1,1,6.991-7.02A7.013,7.013,0,0,1,762.341,395.925Zm0-12.178a5.159,5.159,0,1,0,5.131,5.158A5.151,5.151,0,0,0,762.341,383.747Z" fill="#666"/><path d="M779.791,395.192h-1.353c-3.96,0-6.231-1.819-6.231-4.99V372.1h1.861v18.1a2.619,2.619,0,0,0,1.266,2.457,6.167,6.167,0,0,0,3.1.672h1.353Z" fill="#666"/><rect width="5.864" height="1.861" transform="translate(773.138 377.488)" fill="#666"/><path d="M663.25,372.036a14.757,14.757,0,1,0-14.93,24.5l.542-1.781a12.872,12.872,0,1,1,8.577-.235,11.623,11.623,0,0,1-1.934,2.466,14.759,14.759,0,0,0,7.745-24.947Z" fill="#666"/><path d="M661.047,381.142a8.232,8.232,0,0,0-8.232-8.232,8.528,8.528,0,0,0-8.423,8.384,8.439,8.439,0,0,0,2.227,5.638c2.171,2.292,3.2,4.229,3.186,7.217-.011,2.255-.874,5.412-11.022,11.389,3.368-1.3,19.16-3.368,21.875-20.673A27.764,27.764,0,0,0,661.047,381.142Zm-8.232-4.849a4.849,4.849,0,1,1-4.848,4.849A4.849,4.849,0,0,1,652.815,376.293Z" fill="#666"/></g></svg>