<svg xmlns="http://www.w3.org/2000/svg" width="141.732" height="22.157" viewBox="0 0 141.732 22.157"><g transform="translate(-92 -470.428)"><path d="M97.591,470.435q2.193,0,4.386,0c.031,4.471.006,8.944.014,13.416-.015,1.28.052,2.562-.025,3.841a5.611,5.611,0,0,1-1.435,3.005,6.436,6.436,0,0,1-4.17,1.756c-1.448.011-2.9.044-4.344.017-.024-1.43.008-2.861-.017-4.291,1.047-.257,2.155.018,3.214-.183a2.8,2.8,0,0,0,1.882-.819,2.447,2.447,0,0,0,.476-1.5C97.59,480.6,97.552,475.514,97.591,470.435Z" fill="#b60002"/><path d="M112.76,470.521a15.313,15.313,0,0,1,2.423-.086,11.015,11.015,0,0,1,10.23,11.062,10.264,10.264,0,0,1-1.735,6.056,11.59,11.59,0,0,1-4.385,3.91,11.366,11.366,0,0,1-5.5,1.115,8.135,8.135,0,0,1-1.659-.209,10.651,10.651,0,0,1-5.728-3.163,10.465,10.465,0,0,1-3.055-6.484,11.337,11.337,0,0,1,.433-4.644A11.172,11.172,0,0,1,112.76,470.521Zm.209,4.452a6.374,6.374,0,0,0-3.255,1.805,6.248,6.248,0,0,0-1.963,3.907,7.78,7.78,0,0,0,.2,2.652,6.735,6.735,0,0,0,2.5,3.545,6.62,6.62,0,0,0,4.2,1.285,6.5,6.5,0,0,0,4.439-2.013,6.61,6.61,0,0,0,.973-8.124,6.785,6.785,0,0,0-3.873-2.946,6.453,6.453,0,0,0-2.078-.185A5.922,5.922,0,0,0,112.969,474.973Z" fill="#b60002"/><path d="M122.315,470.431c1.792.01,3.585,0,5.378.008,1.665,2.314,3.318,4.64,4.978,6.958a.164.164,0,0,0,.306-.015q1.9-2.649,3.787-5.3c.4-.547.768-1.124,1.207-1.643q9.254-.006,18.505,0a6.366,6.366,0,0,1,3.133,1.066,8.829,8.829,0,0,1,1.466,1.334,6.771,6.771,0,0,1-.47,8.946,6.239,6.239,0,0,1-3.917,1.9c-.939.021-1.879-.019-2.817.018.549.749,1.283,1.334,1.868,2.054,1.794,1.915,3.565,3.851,5.366,5.76.295.357.634.674.921,1.039-2.049.048-4.1.016-6.148.019-2.505-2.7-4.985-5.433-7.489-8.139a2.906,2.906,0,0,1-.343-.454c.726-1.551,1.362-3.14,2.089-4.689,1.971-.015,3.942,0,5.912-.005a2.233,2.233,0,0,0,2.077-1.855,2.45,2.45,0,0,0-.167-1.3,2.3,2.3,0,0,0-2.121-1.309c-3.116.012-6.233-.011-9.349.011-.024,5.789-.007,11.577-.009,17.365-.016.13.051.417-.175.378-1.4,0-2.809.012-4.213-.008-.028-6.658.02-13.317-.024-19.974a6.628,6.628,0,0,0-1.076,1.348q-2.734,3.775-5.461,7.557c-.19.3-.523.57-.5.957,0,3.371.009,6.742,0,10.113q-2.191.02-4.381,0c-.018-3.4.005-6.8-.011-10.206a4.8,4.8,0,0,0-.737-1.157q-3.754-5.215-7.521-10.422A.286.286,0,0,1,122.315,470.431Z" fill="#b60002"/><path d="M172.682,470.517a14.548,14.548,0,0,1,2.3-.084,10.68,10.68,0,0,1,6.533,2.707,11.081,11.081,0,0,1,3.172,4.576,11.682,11.682,0,0,1,.359,6.314,11.163,11.163,0,0,1-10.061,8.546c-.571,0-1.142.01-1.712,0a11.38,11.38,0,0,1-4.587-1.439,11.135,11.135,0,0,1-5.364-7.567,12.416,12.416,0,0,1-.163-2.927,10.887,10.887,0,0,1,1.336-4.509,12.124,12.124,0,0,1,2.916-3.392A10.573,10.573,0,0,1,172.682,470.517Zm.186,4.449a6.759,6.759,0,0,0-5.224,5.459c-.036.706-.034,1.414,0,2.12a6.713,6.713,0,0,0,5.612,5.539,6.664,6.664,0,0,0,7.552-7.676,6.7,6.7,0,0,0-5.4-5.474A13.739,13.739,0,0,0,172.868,474.966Z" fill="#b60002"/><path d="M196.191,470.505a6.739,6.739,0,0,1,1.355-.071,10.547,10.547,0,0,1,6.624,2.071,11.518,11.518,0,0,1,3.655,4.453,11.683,11.683,0,0,1,.9,3.475,13.955,13.955,0,0,1-.158,3.2,11.11,11.11,0,0,1-8.773,8.762,12.941,12.941,0,0,1-3.2.171,14.367,14.367,0,0,1-2.547-.562,10.314,10.314,0,0,1-3.669-2.154,14.487,14.487,0,0,1-1.75-1.9,11.132,11.132,0,0,1,.2-13.154A10.959,10.959,0,0,1,196.191,470.505Zm.426,4.475a6.674,6.674,0,0,0-.323,12.948,6.6,6.6,0,0,0,5.786-1.137,8.306,8.306,0,0,0,1.673-1.853,6.647,6.647,0,0,0-.787-7.9,6.1,6.1,0,0,0-4.671-2.14A9.123,9.123,0,0,0,196.617,474.98Z" fill="#b60002"/><path d="M209.9,470.565c.038-.031.113-.1.15-.128,1.467-.007,2.935,0,4.4,0,.507.676.879,1.44,1.339,2.147q2.937,4.867,5.881,9.731l.2,0c2.168-3.636,4.381-7.245,6.558-10.874a8.166,8.166,0,0,1,.657-1.01q2.1.008,4.193,0a.963.963,0,0,1,.442.122c0,7.334.01,14.667-.005,22-1.486.043-2.975.023-4.461.01-.01-4.474,0-8.948,0-13.422a2.342,2.342,0,0,0-.125-1.139c-1.912,3.052-3.837,6.1-5.739,9.153-.112.175-.269.374-.5.358q-1.123.006-2.245,0a.594.594,0,0,1-.5-.362c-1.725-2.763-3.47-5.514-5.194-8.278-.176-.255-.277-.59-.583-.721-.025,4.8,0,9.6-.013,14.4-1.482.053-2.964.01-4.446.022C209.877,485.239,209.907,477.9,209.9,470.565Z" fill="#b60002"/></g></svg>