<svg xmlns="http://www.w3.org/2000/svg" width="39.206" height="39.153" viewBox="0 0 39.206 39.153"><path d="M47.64,398.03H12.358a1.969,1.969,0,0,0-1.961,1.96v35.217a1.978,1.978,0,0,0,1.961,1.976H47.64a1.97,1.97,0,0,0,1.963-1.976V399.99a1.961,1.961,0,0,0-1.963-1.96m-3.45,10.9H40.564c-1.648,0-1.69.19-1.69,1.584l-.011,4.143H44.19l-.588,5.585H38.771V434.7H32.658V420.243H28.62v-5.585h4.128v-5.414a5.779,5.779,0,0,1,6.1-5.684h5.34Z" transform="translate(-10.397 -398.03)" fill="#fff" fill-rule="evenodd"/></svg>