<svg xmlns="http://www.w3.org/2000/svg" width="25" height="24.966" viewBox="0 0 25 24.966">
  <path id="Path_245" data-name="Path 245" d="M41.248,169.638H18.75a1.255,1.255,0,0,0-1.25,1.249v22.457a1.26,1.26,0,0,0,1.25,1.26h22.5a1.256,1.256,0,0,0,1.252-1.26V170.887a1.25,1.25,0,0,0-1.252-1.249m-2.2,6.951H36.736c-1.05,0-1.077.121-1.077,1.01l-.007,2.642h3.4l-.376,3.562h-3.08v9.216h-3.9V183.8H29.12v-3.562h2.632v-3.452a3.685,3.685,0,0,1,3.891-3.624h3.406Z" transform="translate(-17.5 -169.638)" fill="#fff" fill-rule="evenodd"/>
</svg>
