<svg xmlns="http://www.w3.org/2000/svg" width="90.84" height="90.397" viewBox="0 0 90.84 90.397"><g transform="translate(-652.12 -1149.835)"><path d="M658.62,1173.494v37.226h-6l21,29.012" fill="none" stroke="#666" stroke-linecap="round" stroke-linejoin="round" stroke-width="1"/><path d="M688.619,1173.494v37.226h6l-21,29.012" fill="none" stroke="#666" stroke-linecap="round" stroke-linejoin="round" stroke-width="1"/><path d="M696.593,1169.634v37.226h6l-21,29.012" fill="none" stroke="#666" stroke-linecap="round" stroke-linejoin="round" stroke-width="1"/><path d="M704.566,1165.774V1203h6l-21,29.012" fill="none" stroke="#666" stroke-linecap="round" stroke-linejoin="round" stroke-width="1"/><path d="M712.54,1161.915v37.226h6l-21,29.012" fill="none" stroke="#666" stroke-linecap="round" stroke-linejoin="round" stroke-width="1"/><path d="M720.513,1158.055v37.226h6l-21,29.012" fill="none" stroke="#666" stroke-linecap="round" stroke-linejoin="round" stroke-width="1"/><path d="M728.487,1154.2v37.226h6l-21,29.012" fill="none" stroke="#666" stroke-linecap="round" stroke-linejoin="round" stroke-width="1"/><path d="M736.46,1150.335v37.226h6l-21,29.012" fill="none" stroke="#666" stroke-linecap="round" stroke-linejoin="round" stroke-width="1"/><line x2="15.19" y2="20.985" transform="translate(666.025 1201.86)" stroke-width="1" stroke="#666" stroke-linecap="round" stroke-linejoin="round" fill="none"/><circle cx="3.797" cy="3.797" r="3.797" transform="translate(673.62 1202.86)" fill="none" stroke="#666" stroke-linecap="round" stroke-linejoin="round" stroke-width="1"/><circle cx="3.797" cy="3.797" r="3.797" transform="translate(666.025 1214.252)" fill="none" stroke="#666" stroke-linecap="round" stroke-linejoin="round" stroke-width="1"/></g></svg>