<svg xmlns="http://www.w3.org/2000/svg" width="90.041" height="90.692" viewBox="0 0 90.041 90.692"><g transform="translate(-192.694 -1149.835)"><rect width="89.041" height="7.395" rx="3.661" transform="translate(193.194 1150.335)" stroke-width="1" stroke="#666" stroke-linecap="round" stroke-linejoin="round" fill="none"/><path d="M275.341,1224.585H200.089a2.161,2.161,0,0,1-2.162-2.161v-64.693H277.5v64.693A2.161,2.161,0,0,1,275.341,1224.585Z" fill="none" stroke="#666" stroke-linecap="round" stroke-linejoin="round" stroke-width="1"/><line y1="14.939" x2="14.939" transform="translate(206.663 1224.881)" stroke-width="1" stroke="#666" stroke-linecap="round" stroke-linejoin="round" fill="none"/><line x1="14.939" y1="14.939" transform="translate(253.828 1224.881)" stroke-width="1" stroke="#666" stroke-linecap="round" stroke-linejoin="round" fill="none"/><circle cx="11.093" cy="11.093" r="11.093" transform="translate(207.402 1165.126)" fill="none" stroke="#666" stroke-linecap="round" stroke-linejoin="round" stroke-width="1"/><line y1="7.839" transform="translate(242.16 1208.463)" stroke-width="1" stroke="#666" stroke-linecap="round" stroke-linejoin="round" fill="none"/><line y1="12.72" transform="translate(248.668 1203.582)" stroke-width="1" stroke="#666" stroke-linecap="round" stroke-linejoin="round" fill="none"/><line y1="18.932" transform="translate(255.028 1197.37)" stroke-width="1" stroke="#666" stroke-linecap="round" stroke-linejoin="round" fill="none"/><line y1="15.53" transform="translate(261.297 1200.772)" stroke-width="1" stroke="#666" stroke-linecap="round" stroke-linejoin="round" fill="none"/><line y1="16.566" transform="translate(267.6 1199.737)" stroke-width="1" stroke="#666" stroke-linecap="round" stroke-linejoin="round" fill="none"/><line y1="2.662" transform="translate(242.16 1184.65)" stroke-width="1" stroke="#666" stroke-linecap="round" stroke-linejoin="round" fill="none"/><line y1="11.093" transform="translate(248.668 1176.219)" stroke-width="1" stroke="#666" stroke-linecap="round" stroke-linejoin="round" fill="none"/><line y1="7.1" transform="translate(255.028 1180.213)" stroke-width="1" stroke="#666" stroke-linecap="round" stroke-linejoin="round" fill="none"/><line y1="15.53" transform="translate(261.297 1171.782)" stroke-width="1" stroke="#666" stroke-linecap="round" stroke-linejoin="round" fill="none"/><line y1="12.72" transform="translate(267.6 1174.592)" stroke-width="1" stroke="#666" stroke-linecap="round" stroke-linejoin="round" fill="none"/><line y1="15.091" x2="15.534" transform="translate(211.099 1168.672)" stroke-width="1" stroke="#666" stroke-linecap="round" stroke-linejoin="round" fill="none"/><line x1="5.544" y1="9.61" transform="translate(212.951 1166.609)" stroke-width="1" stroke="#666" stroke-linecap="round" stroke-linejoin="round" fill="none"/><line x2="3.365" transform="translate(211.913 1195.595)" stroke-width="1" stroke="#666" stroke-linecap="round" stroke-linejoin="round" fill="none"/><line x2="12.794" transform="translate(218.31 1195.595)" stroke-width="1" stroke="#666" stroke-linecap="round" stroke-linejoin="round" fill="none"/><line x2="12.794" transform="translate(205.516 1214.75)" stroke-width="1" stroke="#666" stroke-linecap="round" stroke-linejoin="round" fill="none"/><line x2="25.477" transform="translate(205.627 1202.066)" stroke-width="1" stroke="#666" stroke-linecap="round" stroke-linejoin="round" fill="none"/><line x2="25.477" transform="translate(205.627 1208.463)" stroke-width="1" stroke="#666" stroke-linecap="round" stroke-linejoin="round" fill="none"/></g></svg>