<svg xmlns="http://www.w3.org/2000/svg" width="226.14" height="39.344" viewBox="0 0 226.14 39.344"><g transform="translate(-59.889 -12.802)"><path d="M77.3,18.95V37.67H71.148V31.011H66.067V37.67H59.889V18.95h6.178v6.659h5.081V18.95Z" fill="#fff"/><path d="M97.661,18.95v4.867h-8v2.166H96.7V30.53H89.665v2.219h8.157V37.67H83.488V18.95Z" fill="#fff"/><path d="M112.4,18.522c6.74,0,10.136,4.413,10.136,9.788S119.143,38.1,112.4,38.1s-10.135-4.413-10.135-9.788S105.664,18.522,112.4,18.522Zm0,5.589c-2.406,0-3.8,1.632-3.8,4.2s1.391,4.2,3.8,4.2,3.8-1.632,3.8-4.2S114.81,24.111,112.4,24.111Z" fill="#fff"/><path d="M154.2,37.67V32.054a26.4,26.4,0,0,1,.16-3.156l-6.338,8.772H142.81V18.95h6.177v5.589a26.99,26.99,0,0,1-.16,3.209l6.337-8.8h5.215V37.67Z" fill="#fff"/><path d="M183.96,18.95V37.67h-6.151V31.011h-5.081V37.67h-6.177V18.95h6.177v6.659h5.081V18.95Z" fill="#fff"/><path d="M220.437,18.95v5.4h-5.028V37.67h-6.151V24.352h-5.027v-5.4Z" fill="#fff"/><path d="M240.782,18.95v4.867h-8v2.166h7.033V30.53h-7.033v2.219h8.157V37.67H226.608V18.95Z" fill="#fff"/><path d="M247.1,37.67V18.95h6.178v6.632h1.551l3.744-6.632h6.792l-5.7,9.28,5.8,9.44h-6.792l-3.985-6.686h-1.417V37.67Z" fill="#fff"/><path d="M205.121,52.146V49.651h.628a7.734,7.734,0,0,0,.779-3.826h4.023v3.826h.688v2.495h-1.55V51.118h-3.017v1.028Zm2.42-2.495h1.286V47.307h-.757A6.178,6.178,0,0,1,207.541,49.651Z" fill="#fff"/><path d="M215.033,51.118V49.53a7.4,7.4,0,0,1,.046-.892l-1.792,2.48h-1.475V45.825h1.747v1.581a7.765,7.765,0,0,1-.045.907l1.792-2.488h1.474v5.293Z" fill="#fff"/><path d="M220.265,45.7a3.825,3.825,0,0,1,1.558.318V47.58a2.331,2.331,0,0,0-1.248-.363,1.263,1.263,0,0,0-1.414,1.308c0,.831.68,1.179,1.376,1.179a2.089,2.089,0,0,0,1.323-.378v1.6a3.746,3.746,0,0,1-1.55.317,2.772,2.772,0,1,1-.045-5.535Z" fill="#fff"/><path d="M226.767,45.825v1.528h-1.422v3.765h-1.739V47.353h-1.421V45.825Z" fill="#fff"/><path d="M229.571,45.825c1.346,0,2.375.469,2.375,1.959s-1.029,1.95-2.375,1.95H229v1.384h-1.746V45.825Zm-.015,1.437H229V48.3h.552c.4,0,.658-.151.658-.514S229.957,47.262,229.556,47.262Z" fill="#fff"/><path d="M235.7,51.118V49.53a7.388,7.388,0,0,1,.045-.892l-1.792,2.48h-1.474V45.825h1.746v1.581a7.551,7.551,0,0,1-.045.907l1.792-2.488h1.475v5.293Z" fill="#fff"/><path d="M240.844,47.723c1.028,0,2.033.325,2.033,1.7s-1.005,1.694-2.033,1.694H238.25V45.825h4.181v1.4H240v.5Zm-.22,2.125c.3,0,.522-.083.522-.424s-.219-.431-.522-.431H240v.855Z" fill="#fff"/><path d="M244.563,51.239a3.547,3.547,0,0,1-.96-.159V49.674a1.9,1.9,0,0,0,.62.106.592.592,0,0,0,.612-.3l.083-.166-2.011-3.486h1.867l.968,2.08.779-2.08h1.86l-1.9,4.076A1.923,1.923,0,0,1,244.563,51.239Z" fill="#fff"/><path d="M252.774,52.146V51.118h-4.031V45.825h1.747v3.766h1.444V45.825h1.747v3.766h.643v2.555Z" fill="#fff"/><path d="M258.134,51.118V49.53a7.388,7.388,0,0,1,.045-.892l-1.792,2.48h-1.474V45.825h1.746v1.581a7.551,7.551,0,0,1-.045.907l1.792-2.488h1.474v5.293Z" fill="#fff"/><path d="M260.273,51.118l1.345-1.867a1.609,1.609,0,0,1-.967-1.543c0-1.406,1.1-1.883,2.253-1.883h2.457v5.293h-1.739V49.553h-.3l-1.089,1.565ZM263,48.245h.62v-1H263c-.393,0-.59.2-.59.5S262.609,48.245,263,48.245Z" fill="#fff"/><rect width="18.72" height="6.148" transform="translate(121.798 12.802)" fill="#f60"/><rect width="18.72" height="6.148" transform="translate(187.246 37.67)" fill="#f60"/><rect width="18.72" height="6.148" transform="translate(267.309 37.67)" fill="#f60"/></g></svg>