<svg xmlns="http://www.w3.org/2000/svg" width="890.636" height="120.213" viewBox="0 0 890.636 120.213"><g transform="translate(-274.682 -245.317)"><path d="M319.892,271.815V280.5H313.3v-9.132c0-11.228-4.341-19.761-15.869-19.761s-15.868,8.533-15.868,19.761v54.492c0,11.228,4.341,19.611,15.868,19.611s15.869-8.383,15.869-19.611V313.433h6.587v11.976c0,15.12-6.587,26.5-22.605,26.5s-22.6-11.378-22.6-26.5V271.815c0-15.12,6.586-26.5,22.6-26.5S319.892,256.7,319.892,271.815Z" fill="#fff"/><path d="M338.157,271.815c0-15.27,7.036-26.5,22.9-26.5,16.168,0,23.2,11.228,23.2,26.5v53.594c0,15.27-7.037,26.5-23.2,26.5-15.868,0-22.9-11.228-22.9-26.5Zm6.886,54.043c0,11.377,4.491,19.761,16.018,19.761,11.677,0,16.318-8.384,16.318-19.761V271.366c0-11.378-4.641-19.761-16.318-19.761-11.527,0-16.018,8.383-16.018,19.761Z" fill="#fff"/><path d="M422.741,351.008V252.5H401.333v-6.288h49.7V252.5H429.627v98.5Z" fill="#fff"/><path d="M490.407,246.215c16.168,0,22.456,10.181,22.456,25.45v11.377c0,16.618-7.635,24.852-24.252,24.852H475.586v43.114H468.7V246.215Zm-1.8,55.391c12.126,0,17.365-5.389,17.365-18.114V271.216c0-11.378-3.892-18.713-15.569-18.713H475.586v49.1Z" fill="#fff"/><path d="M557.177,331.547c-3.444,12.575-7.785,20.06-23.055,19.461v-6.137c9.581.149,13.024-4.042,15.569-12.276l4.342-12.725-25.15-73.655h7.036l12.275,36.977,9.132,28,8.384-28.145,11.377-36.827h7.186Z" fill="#fff"/><path d="M643.743,365.53V351.008h-50V365.53h-6.737V344.721h7.186c4.192-4.342,4.94-10.031,5.24-16.767l4.191-81.739h38.324v98.506h8.683V365.53Zm-37.576-37.576c-.449,7.186-1.048,12.575-4.94,16.767H634.91V252.5H610.06Z" fill="#fff"/><path d="M675.932,301.756v49.252h-6.887V246.215h6.887v49.253h32.635V246.215H715.6V351.008h-7.036V301.756Z" fill="#fff"/><path d="M759.767,301.756l-17.216,49.252h-7.485V246.215h6.287v89.673l15.27-42.815,16.916-46.858h8.234V351.008h-6.288V258.341Z" fill="#fff"/><path d="M840.158,300.708c-3.891,6.736-10.329,10.329-18.413,10.329-14.821,0-21.108-11.527-21.108-25.6V246.215h6.887v38.774c0,10.779,4.939,19.761,16.167,19.761,8.683,0,14.222-4.791,16.467-13.623V246.215h6.887V351.008h-6.887Z" fill="#fff"/><path d="M901.986,294.72v6.287H873.394v43.714h34.431v6.287H866.507V246.215h41.318V252.5H873.394V294.72Z" fill="#fff"/><path d="M971.3,271.815V280.5h-6.587v-9.132c0-11.228-4.342-19.761-15.869-19.761s-15.868,8.533-15.868,19.761v54.492c0,11.228,4.34,19.611,15.868,19.611s15.869-8.383,15.869-19.611V313.433H971.3v11.976c0,15.12-6.587,26.5-22.606,26.5s-22.6-11.378-22.6-26.5V271.815c0-15.12,6.587-26.5,22.6-26.5S971.3,256.7,971.3,271.815Z" fill="#fff"/><path d="M1009.627,351.008V252.5H988.219v-6.288h49.7V252.5h-21.408v98.5Z" fill="#fff"/><path d="M1077.592,246.215c15.719,0,21.407,7.785,21.407,22.306v5.989c0,11.377-3.143,18.413-13.772,20.659,11.377,2.245,15.718,10.629,15.718,22.456v9.131c0,15.12-6.886,24.252-22.9,24.252h-22.455V246.215Zm-3.443,46.259c12.275,0,17.963-3.293,17.963-16.617V269.12c0-10.928-3.443-16.617-14.671-16.617h-14.969v39.971Zm3.891,52.247c11.527,0,16.019-6.437,16.019-18.115v-9.431c0-13.623-6.138-18.413-18.564-18.413h-13.023v45.959Z" fill="#fff"/><path d="M1119.21,271.815c0-15.27,7.036-26.5,22.9-26.5,16.168,0,23.2,11.228,23.2,26.5v53.594c0,15.27-7.036,26.5-23.2,26.5-15.868,0-22.9-11.228-22.9-26.5Zm6.887,54.043c0,11.377,4.491,19.761,16.017,19.761,11.678,0,16.319-8.384,16.319-19.761V271.366c0-11.378-4.641-19.761-16.319-19.761-11.526,0-16.017,8.383-16.017,19.761Z" fill="#fff"/></g></svg>