<svg xmlns="http://www.w3.org/2000/svg" width="25" height="21.062" viewBox="0 0 25 21.062">
  <path id="Path_246" data-name="Path 246" d="M40.9,111.672l-22.864,8.911a.833.833,0,0,0,.067,1.576l5.81,1.716,2.168,6.88a1,1,0,0,0,1.665.4l3-3.067,5.9,4.326a1.229,1.229,0,0,0,1.931-.739l3.9-18.664A1.177,1.177,0,0,0,40.9,111.672Zm-2.866,4.142-10.621,9.392a.576.576,0,0,0-.189.364l-.408,3.635a.11.11,0,0,1-.215.02L24.914,123.8a.57.57,0,0,1,.244-.654L37.7,115.372A.277.277,0,0,1,38.029,115.814Z" transform="translate(-17.5 -111.59)" fill="#fff"/>
</svg>
