<svg xmlns="http://www.w3.org/2000/svg" width="333.688" height="38.403" viewBox="0 0 333.688 38.403"><g transform="translate(-552.967 -1099.709)"><path d="M555.175,1117.807V1133.6h-2.208V1100h2.208v15.793H565.64V1100H567.9v33.6H565.64v-15.793Z"/><path d="M574.951,1126.159l-1.68,7.441h-2.017l7.345-33.652h3.216L589.3,1133.6H587.1l-1.68-7.441Zm.336-1.92h9.793l-4.945-21.746Z"/><path d="M594.871,1100v31.586h8.3V1100h2.208v31.586h8.3V1100H615.9v33.6H592.662V1100Z"/><path d="M627.607,1118l-5.473,15.6h-2.4V1100h2.016v28.754l3.889-11.089L632.071,1100h2.64v33.6H632.7v-29.715Z"/><path d="M648.15,1102.013V1133.6h-2.209V1100h14.93v33.6h-2.256v-31.587Z"/><path d="M671.67,1100c5.184,0,7.2,3.264,7.2,8.16v3.649c0,5.328-2.449,7.968-7.777,7.968h-4.177V1133.6h-2.208V1100Zm-.576,17.761c3.888,0,5.568-1.728,5.568-5.808v-3.936c0-3.649-1.248-6-4.992-6h-4.753v15.745Z"/><path d="M693.558,1115.55v2.016h-9.169v14.017H695.43v2.017H682.181V1100H695.43v2.016H684.389v13.537Z"/><path d="M706.9,1118l-5.472,15.6h-2.4V1100h2.017v28.754l3.888-11.089L711.366,1100h2.64v33.6H711.99v-29.715Z"/><path d="M729.077,1133.552h-2.208l-7.105-29.715V1133.6H717.8V1100h3.169l7.056,29.714L735.029,1100H738.2v33.6h-2.112v-29.859Z"/><path d="M750.532,1127.359c-1.1,4.033-2.5,6.433-7.392,6.241v-1.968c3.072.048,4.175-1.3,4.992-3.937l1.392-4.08L741.459,1100h2.257l3.936,11.857,2.928,8.976,2.689-9.024L756.917,1100h2.3Z"/><path d="M786.341,1138.112V1133.6H762.482V1100h2.208v31.586h8.257V1100h2.209v31.586h8.353L783.461,1100h2.208v31.586H788.5v6.529Z"/><path d="M803.379,1115.55v2.016H794.21v14.017h11.041v2.017H792V1100h13.249v2.016H794.21v13.537Z"/><path d="M823.2,1108.2v2.784h-2.112v-2.927c0-3.6-1.392-6.337-5.088-6.337s-5.089,2.736-5.089,6.337v17.473c0,3.6,1.393,6.288,5.089,6.288s5.088-2.688,5.088-6.288v-3.984H823.2v3.84c0,4.848-2.112,8.5-7.249,8.5s-7.248-3.649-7.248-8.5V1108.2c0-4.848,2.112-8.5,7.248-8.5S823.2,1103.357,823.2,1108.2Z"/><path d="M833.09,1133.6v-31.587h-6.865V1100h15.937v2.016H835.3V1133.6Z"/><path d="M852.48,1100c5.041,0,6.866,2.5,6.866,7.152v1.92c0,3.649-1.009,5.905-4.417,6.625,3.648.72,5.041,3.409,5.041,7.2v2.928c0,4.848-2.209,7.777-7.345,7.777h-7.2V1100Zm-1.1,14.833c3.935,0,5.76-1.057,5.76-5.328v-2.16c0-3.505-1.1-5.329-4.7-5.329h-4.8v12.817Zm1.248,16.753c3.7,0,5.136-2.063,5.136-5.808v-3.024c0-4.369-1.968-5.905-5.952-5.905h-4.177v14.737Z"/><path d="M866.784,1126.159l-1.68,7.441h-2.016l7.345-33.652h3.215l7.489,33.652h-2.208l-1.68-7.441Zm.336-1.92h9.793l-4.944-21.746Z"/><path d="M886.655,1111.086v4.224h-2.16v-4.224Zm0,18.289v4.225h-2.16v-4.225Z"/></g></svg>