<svg xmlns="http://www.w3.org/2000/svg" width="254.348" height="38.308" viewBox="0 0 254.348 38.308"><g transform="translate(-592.826 -924.002)"><path d="M604.107,957.6H601.9l-7.1-29.714v29.762h-1.968v-33.6h3.168l7.057,29.714,7.009-29.714h3.168v33.6h-2.112V927.795Z" fill="#333"/><path d="M623.4,937.876c5.377,0,7.825,2.64,7.825,7.969v3.647c0,4.9-2.016,8.161-7.248,8.161h-6.914v-33.6h2.209v13.825Zm.577,17.761c3.744,0,5.04-2.352,5.04-6V945.7c0-4.08-1.728-5.808-5.617-5.808h-4.128v15.745ZM636.6,924.051v33.6H634.4v-33.6Z" fill="#333"/><path d="M650.09,926.066v31.587h-2.208v-33.6h14.929v33.6h-2.256V926.066Z" fill="#333"/><path d="M673.61,924.051c5.184,0,7.2,3.263,7.2,8.16v3.648c0,5.329-2.449,7.969-7.777,7.969h-4.177v13.825h-2.208v-33.6Zm-.576,17.761c3.888,0,5.568-1.728,5.568-5.808v-3.937c0-3.648-1.248-6-4.992-6h-4.753v15.746Z" fill="#333"/><path d="M695.5,939.6v2.016H686.33v14.017h11.041v2.016h-13.25v-33.6h13.25v2.015H686.33V939.6Z" fill="#333"/><path d="M718.73,962.31v-4.657H702.7v4.657h-2.16v-6.673h2.3c1.344-1.392,1.584-3.216,1.68-5.376l1.344-26.21h12.289v31.586h2.784v6.673Zm-12.048-12.049c-.144,2.3-.336,4.032-1.585,5.376h10.8V926.066H707.93Z" fill="#333"/><path d="M731.113,926.066l-.864,23.378c-.191,4.561-.96,8.161-5.9,8.257h-.432v-2.015c3.792,0,4.032-2.833,4.128-6.194l1.008-25.441h12.529v33.6h-2.256V926.066Z" fill="#333"/><path d="M748.681,950.213,747,957.653h-2.016L752.329,924h3.216l7.488,33.651h-2.208l-1.679-7.44Zm.336-1.92h9.793l-4.945-21.746Z" fill="#333"/><path d="M768.6,926.066v31.587h-2.208v-33.6H779.3v2.015Z" fill="#333"/><path d="M786.216,950.213l-1.681,7.44H782.52L789.864,924h3.216l7.488,33.651H798.36l-1.679-7.44Zm.336-1.92h9.793L791.4,926.547Z" fill="#333"/><path d="M815.3,939.6v2.016h-9.169v14.017h11.041v2.016H803.927v-33.6h13.249v2.015H806.135V939.6Z" fill="#333"/><path d="M832.056,957.6h-2.208l-7.105-29.714v29.762h-1.969v-33.6h3.169L831,953.765l7.008-29.714h3.169v33.6h-2.113V927.795Z" fill="#333"/><path d="M847.174,935.14v4.223h-2.16V935.14Zm0,18.289v4.224h-2.16v-4.224Z" fill="#333"/></g></svg>