<svg xmlns="http://www.w3.org/2000/svg" width="39.2" height="28.792" viewBox="0 0 39.2 28.792"><path d="M49.477,352.331a13.794,13.794,0,0,1-4.1-.422,6.951,6.951,0,0,0,4.22-2.474,13.755,13.755,0,0,1-4.7-.019,6.916,6.916,0,0,0-12.865.049A6.3,6.3,0,0,0,31.62,351a19.67,19.67,0,0,1-10.646-11.926,6.91,6.91,0,0,0-1.369,9.374,6.875,6.875,0,0,1-2.6-1.936.5.5,0,0,1-.04.075,6.923,6.923,0,0,0,2.707,8.34,7.057,7.057,0,0,1-1.789-.438,6.591,6.591,0,0,1-1.167-.592,6.935,6.935,0,0,0,4.269,6.832,13.932,13.932,0,0,1-9.076-.365,13.023,13.023,0,0,1-1.5-.7,19.531,19.531,0,0,0,8.747,6.755c11.843,4.634,22.17-2.654,25.5-11.168.1-.286.211-.559.312-.849a13.871,13.871,0,0,0,4.514-2.079" transform="translate(-10.4 -339.077)" fill="#fff"/></svg>