<svg xmlns="http://www.w3.org/2000/svg" width="24.996" height="25" viewBox="0 0 24.996 25">
  <path id="Path_244" data-name="Path 244" d="M31.359,60.364a1.367,1.367,0,0,0,.589-1.279,1.293,1.293,0,0,0-.78-1.336,5.528,5.528,0,0,0-1.719-.226H27.462v3.2h2.363a2.922,2.922,0,0,0,1.534-.361m.284,3.336a3.559,3.559,0,0,0-1.447-.241H27.462v3.873h2.689a3.367,3.367,0,0,0,1.468-.261,1.832,1.832,0,0,0,.954-1.817,1.566,1.566,0,0,0-.93-1.554M38.3,49.621H21.7a4.209,4.209,0,0,0-4.194,4.2v16.6A4.21,4.21,0,0,0,21.7,74.621H38.3a4.211,4.211,0,0,0,4.2-4.205v-16.6a4.21,4.21,0,0,0-4.2-4.2m-.9,18.065a4.333,4.333,0,0,1-1.436,1.544,6.99,6.99,0,0,1-2.325,1.03,13.9,13.9,0,0,1-3.215.311H22.6V54.281h6.953c1.443,0,2.94.045,3.607.133a6.694,6.694,0,0,1,1.993.579,3.453,3.453,0,0,1,1.52,1.258,3.322,3.322,0,0,1,.5,1.813,3.394,3.394,0,0,1-.681,2.078,4.459,4.459,0,0,1-1.94,1.411v.083A3.912,3.912,0,0,1,36.9,62.955a3.483,3.483,0,0,1,1.027,2.62,4.249,4.249,0,0,1-.522,2.111" transform="translate(-17.502 -49.621)" fill="#fff"/>
</svg>
