<svg xmlns="http://www.w3.org/2000/svg" width="39.2" height="39.207" viewBox="0 0 39.2 39.207"><path d="M32.131,292.487a2.139,2.139,0,0,0,.923-2.005,2.026,2.026,0,0,0-1.222-2.1,8.629,8.629,0,0,0-2.7-.355H26.02v5.021h3.706a4.576,4.576,0,0,0,2.405-.566m.445,5.231a5.6,5.6,0,0,0-2.269-.377H26.02v6.074h4.217a5.273,5.273,0,0,0,2.3-.41,2.872,2.872,0,0,0,1.5-2.849,2.456,2.456,0,0,0-1.459-2.438m10.442-22.079H16.977a6.6,6.6,0,0,0-6.577,6.586V308.25a6.6,6.6,0,0,0,6.577,6.6H43.018a6.6,6.6,0,0,0,6.582-6.6V282.225a6.6,6.6,0,0,0-6.582-6.586M41.606,303.97a6.787,6.787,0,0,1-2.251,2.421,10.965,10.965,0,0,1-3.646,1.616,21.787,21.787,0,0,1-5.043.487H18.4V282.947H29.3c2.262,0,4.61.071,5.657.209a10.486,10.486,0,0,1,3.126.909,5.4,5.4,0,0,1,2.383,1.972,5.22,5.22,0,0,1,.782,2.843,5.32,5.32,0,0,1-1.068,3.259,7.005,7.005,0,0,1-3.042,2.213v.13a6.132,6.132,0,0,1,3.676,2.068,5.465,5.465,0,0,1,1.61,4.109,6.668,6.668,0,0,1-.819,3.311" transform="translate(-10.4 -275.639)" fill="#fff"/></svg>