<svg xmlns="http://www.w3.org/2000/svg" width="25" height="25.01" viewBox="0 0 25 25.01">
  <defs>
    <style>
      .cls-1 {
        fill: #fff;
      }
    </style>
  </defs>
  <title>Вк</title>
  <g id="Слой_2" data-name="Слой 2">
    <g id="Слой_1-2" data-name="Слой 1">
      <path class="cls-1" d="M0,3.86V21.14A3.87,3.87,0,0,0,3.86,25H21.14A3.87,3.87,0,0,0,25,21.14V3.86A3.86,3.86,0,0,0,21.14,0H3.86A3.86,3.86,0,0,0,0,3.86ZM18.24,13.93l2.17,2.5a.49.49,0,0,1-.37.82H17.59a1.54,1.54,0,0,1-1.05-.42l-.72-.67c-.82-.72-1.17-1-1.5-1s-.41.24-.41.88-.12,1.17-2,1.17-3.36-1.42-5-3.61A16.6,16.6,0,0,1,4.5,9.1a.46.46,0,0,1,.43-.6h2a1,1,0,0,1,.88.56,16.67,16.67,0,0,0,.9,1.67,5.05,5.05,0,0,0,1.68,1.85.2.2,0,0,0,.31-.17V9.71a1.45,1.45,0,0,0-.36-1L10,8.43a.13.13,0,0,1,.1-.21h3.1a.86.86,0,0,1,.86.86v3.14a.2.2,0,0,0,.37.11L16.68,9a1,1,0,0,1,.79-.43h2.62a.46.46,0,0,1,.39.7l-2.32,3.68a.84.84,0,0,0,.08,1Z"/>
    </g>
  </g>
</svg>
